<svg width="459" height="377" viewBox="0 0 459 377" fill="none" xmlns="http://www.w3.org/2000/svg">
<ellipse cx="137.517" cy="294.13" rx="5.51724" ry="5.43478" fill="#FFEB36"/>
<path d="M149.655 284.348C149.655 286.749 147.679 288.696 145.241 288.696C142.804 288.696 140.828 286.749 140.828 284.348C140.828 281.947 142.804 280 145.241 280C147.679 280 149.655 281.947 149.655 284.348Z" fill="#FFEB36"/>
<ellipse cx="155.724" cy="296.848" rx="8.27586" ry="8.15217" fill="#FFEB36"/>
<ellipse cx="6.73077" cy="7" rx="6.73077" ry="7" transform="matrix(0.424268 0.905537 0.905537 -0.424268 253.281 154.479)" fill="#FFEB36"/>
<ellipse cx="6.73077" cy="7" rx="6.73077" ry="7" transform="matrix(0.424268 0.905537 0.905537 -0.424268 246.44 169.577)" fill="#FFEB36"/>
<path d="M249.101 165.357C251.901 164.045 253.149 160.798 251.887 158.105C250.626 155.412 247.332 154.293 244.532 155.605C241.731 156.917 240.484 160.164 241.745 162.857C243.007 165.55 246.3 166.669 249.101 165.357Z" fill="#FFEB36"/>
<ellipse cx="8.75" cy="9.1" rx="8.75" ry="9.1" transform="matrix(0.424268 0.905537 0.905537 -0.424268 262.098 166.7)" fill="#FFEB36"/>
<path d="M163.146 223.386L139.53 247.38L117.406 267.711C112.364 272.344 108.484 278.1 106.08 284.512L105.246 286.735C103.643 291.009 102.96 295.573 103.24 300.129L103.292 300.984C103.583 305.714 105.027 310.301 107.499 314.344L109.006 316.809C111.394 320.717 115.016 323.717 119.3 325.336L120.471 325.778C124.042 327.128 127.963 327.236 131.603 326.086L133.721 325.416C141.946 322.816 146.256 313.802 143.118 305.767V305.767" stroke="#3A723A" stroke-width="4"/>
<path d="M265 183L266.243 184.695C272.084 192.66 282.329 196.053 291.77 193.148V193.148C298.261 191.15 303.551 186.409 306.243 180.173L313.342 163.734C317.946 153.074 315.432 140.674 307.041 132.648V132.648C301.292 127.149 293.461 124.378 285.533 125.039L250 128L209 130.338L162.389 137.602C152.276 139.178 141.934 138.311 132.225 135.075L120.943 131.314C114.504 129.168 108.982 124.906 105.275 119.221V119.221C99.5192 110.396 98.806 99.201 103.395 89.7167L103.628 89.2348C108.223 79.7398 117.33 73.2327 127.802 71.9634L129.342 71.7768C138.688 70.6438 148.085 73.4561 155.272 79.5378L163.075 86.1401C167.663 90.0225 171.611 94.603 174.775 99.7135L177.956 104.852C181.307 110.266 184.017 116.051 186.03 122.091V122.091C187.342 126.025 188.353 130.052 189.055 134.138L190.692 143.663C192.545 154.442 192.188 165.485 189.645 176.122V176.122C188.55 180.699 187.058 185.171 185.185 189.488L183.399 193.603C178.834 204.122 172.493 213.779 164.654 222.149L147 241L126 259L112.857 269.515C101.757 278.395 88.8284 284.708 75 288V288" stroke="#3A723A" stroke-width="4"/>
<path d="M302 128L317.802 129.278C323.74 129.758 329.71 129.707 335.639 129.125L347.091 128L361.329 126.757C367.08 126.255 372.872 126.585 378.529 127.737V127.737C385.869 129.233 392.864 132.089 399.154 136.158L402 138" stroke="#3A723A" stroke-width="3"/>
<path d="M343.287 126.146L342.952 125.434L342.84 124.489L342.955 123.334L343.294 121.997L343.847 120.512L344.603 118.914L345.541 117.244L346.64 115.542L347.871 113.851L349.204 112.211L350.608 110.664L352.047 109.247L353.485 107.996L354.888 106.94L356.22 106.107L357.449 105.516L358.545 105.183L359.481 105.115L360.234 105.314L360.784 105.775L361.119 106.487L361.231 107.432L361.116 108.587L360.777 109.924L360.224 111.409L359.468 113.006L358.53 114.677L357.431 116.378L356.2 118.07L354.866 119.709L353.463 121.257L352.024 122.674L350.586 123.925L349.183 124.98L347.851 125.814L346.622 126.404L345.526 126.738L344.59 126.806L343.837 126.607L343.287 126.146Z" fill="#18560E"/>
<path d="M343.287 126.146L342.952 125.434L342.84 124.489L342.955 123.334L343.294 121.997L343.847 120.512L344.603 118.914L345.541 117.244L346.64 115.542L347.871 113.851L349.204 112.211L350.608 110.664L352.047 109.247L353.485 107.996L354.888 106.94L356.22 106.107L357.449 105.516L358.545 105.183L359.481 105.115L360.234 105.314L360.784 105.775L361.119 106.487L361.231 107.432L361.116 108.587L360.777 109.924L360.224 111.409L359.468 113.006L358.53 114.677L357.431 116.378L356.2 118.07L354.866 119.709L353.463 121.257L352.024 122.674L350.586 123.925L349.183 124.98L347.851 125.814L346.622 126.404L345.526 126.738L344.59 126.806L343.837 126.607L343.287 126.146Z" stroke="black"/>
<path d="M353.975 108.19L354.508 107.485L355.137 106.858L355.847 106.324L356.621 105.898L357.439 105.589L358.281 105.406L359.127 105.352L359.956 105.429L360.746 105.635L361.48 105.965L362.138 106.411L362.705 106.962L363.167 107.605L363.511 108.323L363.731 109.098L363.819 109.913L363.775 110.746L363.6 111.577L363.296 112.386L362.873 113.153L362.34 113.859L361.711 114.486L361.001 115.019L360.227 115.445L359.409 115.754L358.567 115.938L357.721 115.992L356.892 115.914L356.102 115.708L355.368 115.378L354.71 114.932L354.143 114.381L353.681 113.739L353.337 113.021L353.117 112.245L353.029 111.431L353.073 110.598L353.249 109.766L353.552 108.957L353.975 108.19Z" fill="#18560E"/>
<path d="M353.975 108.19L354.508 107.485L355.137 106.858L355.847 106.324L356.621 105.898L357.439 105.589L358.281 105.406L359.127 105.352L359.956 105.429L360.746 105.635L361.48 105.965L362.138 106.411L362.705 106.962L363.167 107.605L363.511 108.323L363.731 109.098L363.819 109.913L363.775 110.746L363.6 111.577L363.296 112.386L362.873 113.153L362.34 113.859L361.711 114.486L361.001 115.019L360.227 115.445L359.409 115.754L358.567 115.938L357.721 115.992L356.892 115.914L356.102 115.708L355.368 115.378L354.71 114.932L354.143 114.381L353.681 113.739L353.337 113.021L353.117 112.245L353.029 111.431L353.073 110.598L353.249 109.766L353.552 108.957L353.975 108.19Z" stroke="black"/>
<path d="M344.082 126.47L344.039 126.044L344.106 125.531L344.283 124.936L344.568 124.265L344.957 123.526L345.446 122.726L346.03 121.875L346.703 120.982L347.457 120.056L348.284 119.108L349.174 118.148L350.119 117.187L351.107 116.236L352.129 115.303L353.172 114.401L354.225 113.538L355.277 112.725L356.317 111.97L357.332 111.28L358.312 110.665L359.246 110.131L360.123 109.683L360.935 109.326L361.672 109.065L362.326 108.902L362.89 108.839L363.358 108.877L363.725 109.015L363.986 109.251L364.139 109.584L364.182 110.009L364.115 110.522L363.938 111.118L363.654 111.789L363.265 112.528L362.776 113.328L362.191 114.179L361.519 115.072L360.765 115.997L359.938 116.945L359.047 117.905L358.102 118.866L357.114 119.818L356.093 120.75L355.05 121.653L353.996 122.515L352.944 123.329L351.905 124.084L350.89 124.773L349.91 125.388L348.976 125.923L348.098 126.371L347.286 126.727L346.55 126.988L345.895 127.151L345.331 127.214L344.863 127.177L344.497 127.039L344.236 126.802L344.082 126.47Z" fill="#18560E"/>
<path d="M372.459 124.458L372.123 123.391L372.119 122.125L372.447 120.691L373.099 119.124L374.059 117.463L375.304 115.749L376.802 114.024L378.517 112.33L380.406 110.709L382.423 109.201L384.519 107.844L386.641 106.67L388.738 105.708L390.758 104.983L392.651 104.512L394.37 104.306L395.874 104.371L397.124 104.705L398.091 105.301L398.751 106.142L399.087 107.209L399.091 108.475L398.763 109.909L398.111 111.476L397.151 113.137L395.906 114.851L394.408 116.576L392.693 118.27L390.804 119.891L388.787 121.399L386.691 122.756L384.569 123.93L382.472 124.892L380.452 125.617L378.559 126.088L376.84 126.294L375.336 126.229L374.086 125.895L373.119 125.3L372.459 124.458Z" fill="#18560E"/>
<path d="M372.459 124.458L372.123 123.391L372.119 122.125L372.447 120.691L373.099 119.124L374.059 117.463L375.304 115.749L376.802 114.024L378.517 112.33L380.406 110.709L382.423 109.201L384.519 107.844L386.641 106.67L388.738 105.708L390.758 104.983L392.651 104.512L394.37 104.306L395.874 104.371L397.124 104.705L398.091 105.301L398.751 106.142L399.087 107.209L399.091 108.475L398.763 109.909L398.111 111.476L397.151 113.137L395.906 114.851L394.408 116.576L392.693 118.27L390.804 119.891L388.787 121.399L386.691 122.756L384.569 123.93L382.472 124.892L380.452 125.617L378.559 126.088L376.84 126.294L375.336 126.229L374.086 125.895L373.119 125.3L372.459 124.458Z" stroke="black"/>
<path d="M389.358 106.18L390.172 105.512L391.101 104.989L392.124 104.623L393.214 104.424L394.345 104.395L395.49 104.539L396.619 104.851L397.705 105.323L398.722 105.945L399.644 106.701L400.449 107.571L401.117 108.536L401.63 109.57L401.978 110.649L402.151 111.745L402.145 112.833L401.959 113.885L401.6 114.875L401.075 115.779L400.397 116.574L399.583 117.242L398.654 117.765L397.631 118.131L396.541 118.33L395.41 118.359L394.265 118.215L393.136 117.903L392.05 117.43L391.033 116.809L390.111 116.053L389.306 115.183L388.639 114.218L388.125 113.184L387.777 112.105L387.604 111.009L387.611 109.921L387.796 108.869L388.155 107.879L388.681 106.975L389.358 106.18Z" fill="#18560E"/>
<path d="M389.358 106.18L390.172 105.512L391.101 104.989L392.124 104.623L393.214 104.424L394.345 104.395L395.49 104.539L396.619 104.851L397.705 105.323L398.722 105.945L399.644 106.701L400.449 107.571L401.117 108.536L401.63 109.57L401.978 110.649L402.151 111.745L402.145 112.833L401.959 113.885L401.6 114.875L401.075 115.779L400.397 116.574L399.583 117.242L398.654 117.765L397.631 118.131L396.541 118.33L395.41 118.359L394.265 118.215L393.136 117.903L392.05 117.43L391.033 116.809L390.111 116.053L389.306 115.183L388.639 114.218L388.125 113.184L387.777 112.105L387.604 111.009L387.611 109.921L387.796 108.869L388.155 107.879L388.681 106.975L389.358 106.18Z" stroke="black"/>
<path d="M373.464 125.233L373.472 124.666L373.639 124.037L373.964 123.351L374.443 122.616L375.071 121.84L375.841 121.032L376.745 120.201L377.773 119.355L378.913 118.504L380.153 117.658L381.479 116.825L382.878 116.014L384.333 115.236L385.829 114.497L387.349 113.806L388.876 113.172L390.394 112.6L391.887 112.096L393.337 111.668L394.73 111.318L396.049 111.052L397.28 110.871L398.41 110.778L399.427 110.775L400.319 110.86L401.076 111.033L401.69 111.292L402.155 111.635L402.466 112.057L402.618 112.554L402.611 113.121L402.443 113.75L402.119 114.436L401.639 115.171L401.011 115.947L400.241 116.755L399.337 117.586L398.31 118.432L397.17 119.283L395.929 120.129L394.603 120.962L393.204 121.773L391.749 122.551L390.254 123.29L388.734 123.981L387.206 124.615L385.688 125.188L384.195 125.691L382.745 126.119L381.353 126.469L380.033 126.735L378.802 126.916L377.672 127.009L376.655 127.012L375.764 126.927L375.006 126.754L374.392 126.495L373.927 126.152L373.617 125.73L373.464 125.233Z" fill="#18560E"/>
<path d="M376.709 122.247L381.411 120.274C386.891 117.975 391.939 114.76 396.339 110.765V110.765" stroke="#203420" stroke-opacity="0.58" stroke-width="3"/>
<path d="M325.672 131.93L326.453 131.708L327.487 131.8L328.751 132.204L330.211 132.911L331.834 133.902L333.577 135.153L335.4 136.635L337.256 138.309L339.1 140.135L340.887 142.068L342.572 144.06L344.115 146.062L345.476 148.025L346.624 149.901L347.528 151.644L348.168 153.21L348.527 154.56L348.597 155.663L348.375 156.49L347.867 157.021L347.087 157.243L346.052 157.151L344.789 156.747L343.328 156.04L341.706 155.049L339.962 153.798L338.14 152.317L336.284 150.643L334.44 148.817L332.653 146.884L330.967 144.892L329.425 142.889L328.063 140.926L326.916 139.05L326.011 137.307L325.372 135.742L325.013 134.391L324.943 133.288L325.165 132.461L325.672 131.93Z" fill="#18560E"/>
<path d="M325.672 131.93L326.453 131.708L327.487 131.8L328.751 132.204L330.211 132.911L331.834 133.902L333.577 135.153L335.4 136.635L337.256 138.309L339.1 140.135L340.887 142.068L342.572 144.06L344.115 146.062L345.476 148.025L346.624 149.901L347.528 151.644L348.168 153.21L348.527 154.56L348.597 155.663L348.375 156.49L347.867 157.021L347.087 157.243L346.052 157.151L344.789 156.747L343.328 156.04L341.706 155.049L339.962 153.798L338.14 152.317L336.284 150.643L334.44 148.817L332.653 146.884L330.967 144.892L329.425 142.889L328.063 140.926L326.916 139.05L326.011 137.307L325.372 135.742L325.013 134.391L324.943 133.288L325.165 132.461L325.672 131.93Z" stroke="black"/>
<path d="M343.354 150.112L343.857 151.728L344.204 153.348L344.387 154.933L344.402 156.443L344.248 157.842L343.928 159.095L343.452 160.171L342.83 161.044L342.077 161.691L341.213 162.098L340.259 162.254L339.237 162.156L338.174 161.805L337.095 161.211L336.028 160.388L334.997 159.356L334.029 158.14L333.148 156.772L332.375 155.284L331.729 153.712L331.226 152.097L330.879 150.477L330.696 148.892L330.681 147.381L330.835 145.983L331.155 144.73L331.631 143.654L332.253 142.781L333.006 142.133L333.87 141.726L334.824 141.57L335.846 141.669L336.909 142.019L337.987 142.614L339.055 143.437L340.086 144.469L341.054 145.684L341.935 147.053L342.708 148.541L343.354 150.112Z" fill="#18560E"/>
<path d="M343.354 150.112L343.857 151.728L344.204 153.348L344.387 154.933L344.402 156.443L344.248 157.842L343.928 159.095L343.452 160.171L342.83 161.044L342.077 161.691L341.213 162.098L340.259 162.254L339.237 162.156L338.174 161.805L337.095 161.211L336.028 160.388L334.997 159.356L334.029 158.14L333.148 156.772L332.375 155.284L331.729 153.712L331.226 152.097L330.879 150.477L330.696 148.892L330.681 147.381L330.835 145.983L331.155 144.73L331.631 143.654L332.253 142.781L333.006 142.133L333.87 141.726L334.824 141.57L335.846 141.669L336.909 142.019L337.987 142.614L339.055 143.437L340.086 144.469L341.054 145.684L341.935 147.053L342.708 148.541L343.354 150.112Z" stroke="black"/>
<path d="M345.723 149.672L346.726 151.087L347.561 152.605L348.206 154.185L348.645 155.791L348.868 157.382L348.87 158.919L348.65 160.365L348.213 161.683L347.571 162.842L346.739 163.812L345.738 164.57L344.593 165.097L343.331 165.38L341.983 165.413L340.584 165.194L339.167 164.729L337.767 164.029L336.418 163.111L335.155 161.999L334.007 160.719L333.004 159.303L332.17 157.786L331.525 156.205L331.085 154.6L330.862 153.009L330.86 151.471L331.081 150.026L331.517 148.708L332.159 147.549L332.991 146.579L333.992 145.821L335.137 145.294L336.399 145.01L337.747 144.978L339.146 145.197L340.564 145.662L341.964 146.362L343.312 147.279L344.576 148.392L345.723 149.672Z" fill="#18560E"/>
<path d="M345.723 149.672L346.726 151.087L347.561 152.605L348.206 154.185L348.645 155.791L348.868 157.382L348.87 158.919L348.65 160.365L348.213 161.683L347.571 162.842L346.739 163.812L345.738 164.57L344.593 165.097L343.331 165.38L341.983 165.413L340.584 165.194L339.167 164.729L337.767 164.029L336.418 163.111L335.155 161.999L334.007 160.719L333.004 159.303L332.17 157.786L331.525 156.205L331.085 154.6L330.862 153.009L330.86 151.471L331.081 150.026L331.517 148.708L332.159 147.549L332.991 146.579L333.992 145.821L335.137 145.294L336.399 145.01L337.747 144.978L339.146 145.197L340.564 145.662L341.964 146.362L343.312 147.279L344.576 148.392L345.723 149.672Z" stroke="black"/>
<path d="M324.357 128.935L324.895 128.991L325.523 129.202L326.233 129.565L327.019 130.076L327.872 130.73L328.783 131.519L329.74 132.436L330.735 133.469L331.756 134.608L332.791 135.84L333.83 137.151L334.861 138.528L335.873 139.954L336.855 141.416L337.795 142.895L338.685 144.377L339.513 145.845L340.271 147.283L340.951 148.675L341.545 150.006L342.046 151.262L342.449 152.428L342.75 153.492L342.946 154.442L343.034 155.267L343.013 155.96L342.883 156.511L342.647 156.916L342.306 157.169L341.864 157.269L341.326 157.213L340.699 157.002L339.988 156.639L339.202 156.128L338.349 155.474L337.439 154.685L336.481 153.768L335.486 152.735L334.466 151.596L333.43 150.364L332.391 149.053L331.36 147.676L330.348 146.25L329.367 144.788L328.426 143.309L327.537 141.827L326.708 140.359L325.95 138.921L325.271 137.529L324.677 136.198L324.175 134.942L323.772 133.776L323.471 132.712L323.275 131.762L323.188 130.937L323.209 130.244L323.338 129.693L323.574 129.288L323.915 129.035L324.357 128.935Z" fill="#18560E"/>
<path d="M333.069 140.289L334.853 144.508C337.114 149.855 340.024 154.903 343.518 159.538V159.538" stroke="#203420" stroke-opacity="0.58" stroke-width="3"/>
<path d="M365.695 129.266L366.344 129.089L367.267 129.209L368.44 129.625L369.835 130.325L371.417 131.292L373.147 132.503L374.984 133.927L376.88 135.53L378.791 137.272L380.668 139.11L382.466 140.999L384.14 142.893L385.65 144.744L386.957 146.508L388.03 148.14L388.842 149.601L389.374 150.855L389.611 151.87L389.549 152.622L389.189 153.093L388.54 153.27L387.617 153.149L386.444 152.734L385.049 152.034L383.467 151.067L381.737 149.856L379.9 148.432L378.004 146.829L376.093 145.087L374.216 143.248L372.418 141.359L370.744 139.466L369.234 137.614L367.927 135.851L366.854 134.218L366.042 132.757L365.51 131.504L365.273 130.488L365.335 129.736L365.695 129.266Z" fill="#18560E"/>
<path d="M365.695 129.266L366.344 129.089L367.267 129.209L368.44 129.625L369.835 130.325L371.417 131.292L373.147 132.503L374.984 133.927L376.88 135.53L378.791 137.272L380.668 139.11L382.466 140.999L384.14 142.893L385.65 144.744L386.957 146.508L388.03 148.14L388.842 149.601L389.374 150.855L389.611 151.87L389.549 152.622L389.189 153.093L388.54 153.27L387.617 153.149L386.444 152.734L385.049 152.034L383.467 151.067L381.737 149.856L379.9 148.432L378.004 146.829L376.093 145.087L374.216 143.248L372.418 141.359L370.744 139.466L369.234 137.614L367.927 135.851L366.854 134.218L366.042 132.757L365.51 131.504L365.273 130.488L365.335 129.736L365.695 129.266Z" stroke="black"/>
<path d="M384.122 146.588L384.822 148.09L385.386 149.59L385.801 151.053L386.056 152.441L386.145 153.721L386.066 154.861L385.82 155.833L385.414 156.613L384.857 157.182L384.164 157.526L383.352 157.636L382.44 157.51L381.451 157.151L380.409 156.567L379.341 155.774L378.271 154.79L377.227 153.639L376.235 152.351L375.318 150.957L374.499 149.49L373.799 147.989L373.235 146.488L372.82 145.025L372.565 143.637L372.477 142.357L372.556 141.217L372.802 140.245L373.208 139.465L373.764 138.896L374.457 138.552L375.269 138.442L376.181 138.568L377.17 138.927L378.212 139.511L379.281 140.305L380.35 141.289L381.394 142.439L382.387 143.727L383.304 145.122L384.122 146.588Z" fill="#18560E"/>
<path d="M384.122 146.588L384.822 148.09L385.386 149.59L385.801 151.053L386.056 152.441L386.145 153.721L386.066 154.861L385.82 155.833L385.414 156.613L384.857 157.182L384.164 157.526L383.352 157.636L382.44 157.51L381.451 157.151L380.409 156.567L379.341 155.774L378.271 154.79L377.227 153.639L376.235 152.351L375.318 150.957L374.499 149.49L373.799 147.989L373.235 146.488L372.82 145.025L372.565 143.637L372.477 142.357L372.556 141.217L372.802 140.245L373.208 139.465L373.764 138.896L374.457 138.552L375.269 138.442L376.181 138.568L377.17 138.927L378.212 139.511L379.281 140.305L380.35 141.289L381.394 142.439L382.387 143.727L383.304 145.122L384.122 146.588Z" stroke="black"/>
<path d="M386.13 146.265L387.237 147.601L388.212 149.024L389.031 150.499L389.674 151.99L390.125 153.459L390.373 154.872L390.411 156.192L390.24 157.388L389.862 158.43L389.288 159.293L388.531 159.955L387.61 160.399L386.548 160.615L385.371 160.598L384.108 160.348L382.79 159.872L381.45 159.18L380.12 158.29L378.833 157.224L377.621 156.008L376.514 154.672L375.539 153.249L374.72 151.774L374.077 150.283L373.626 148.814L373.378 147.401L373.34 146.081L373.511 144.885L373.889 143.843L374.463 142.98L375.22 142.319L376.141 141.874L377.203 141.658L378.38 141.675L379.643 141.925L380.961 142.401L382.301 143.093L383.631 143.983L384.918 145.049L386.13 146.265Z" fill="#18560E"/>
<path d="M386.13 146.265L387.237 147.601L388.212 149.024L389.031 150.499L389.674 151.99L390.125 153.459L390.373 154.872L390.411 156.192L390.24 157.388L389.862 158.43L389.288 159.293L388.531 159.955L387.61 160.399L386.548 160.615L385.371 160.598L384.108 160.348L382.79 159.872L381.45 159.18L380.12 158.29L378.833 157.224L377.621 156.008L376.514 154.672L375.539 153.249L374.72 151.774L374.077 150.283L373.626 148.814L373.378 147.401L373.34 146.081L373.511 144.885L373.889 143.843L374.463 142.98L375.22 142.319L376.141 141.874L377.203 141.658L378.38 141.675L379.643 141.925L380.961 142.401L382.301 143.093L383.631 143.983L384.918 145.049L386.13 146.265Z" stroke="black"/>
<path d="M364.061 126.468L364.542 126.538L365.126 126.754L365.808 127.112L366.58 127.609L367.433 128.24L368.358 128.997L369.345 129.872L370.383 130.856L371.461 131.938L372.567 133.106L373.689 134.347L374.814 135.648L375.931 136.994L377.026 138.371L378.089 139.763L379.106 141.156L380.068 142.533L380.964 143.881L381.783 145.184L382.518 146.427L383.159 147.598L383.699 148.684L384.134 149.672L384.458 150.551L384.667 151.313L384.76 151.949L384.735 152.451L384.592 152.815L384.333 153.035L383.962 153.111L383.481 153.041L382.896 152.826L382.215 152.467L381.443 151.97L380.59 151.34L379.665 150.583L378.678 149.707L377.639 148.723L376.561 147.642L375.456 146.474L374.334 145.232L373.209 143.932L372.092 142.586L370.997 141.209L369.934 139.816L368.916 138.424L367.955 137.046L367.059 135.699L366.24 134.396L365.505 133.152L364.864 131.981L364.323 130.896L363.889 129.908L363.565 129.028L363.356 128.266L363.263 127.631L363.288 127.129L363.431 126.765L363.69 126.544L364.061 126.468Z" fill="#18560E"/>
<path d="M373.525 137.204L375.72 141.061C378.594 146.113 381.963 150.868 385.776 155.254V155.254" stroke="#203420" stroke-opacity="0.58" stroke-width="3"/>
<path d="M403.582 139.133L404.259 138.47L405.285 137.978L406.634 137.667L408.273 137.547L410.163 137.619L412.255 137.882L414.5 138.33L416.841 138.951L419.221 139.73L421.581 140.649L423.863 141.683L426.011 142.809L427.973 143.998L429.699 145.22L431.147 146.447L432.283 147.647L433.076 148.791L433.509 149.851L433.571 150.8L433.259 151.616L432.582 152.279L431.556 152.771L430.207 153.082L428.567 153.202L426.678 153.13L424.585 152.867L422.341 152.419L420 151.798L417.62 151.019L415.26 150.1L412.977 149.066L410.829 147.94L408.868 146.751L407.142 145.529L405.693 144.302L404.558 143.102L403.764 141.958L403.331 140.898L403.27 139.949L403.582 139.133Z" fill="#18560E"/>
<path d="M403.582 139.133L404.259 138.47L405.285 137.978L406.634 137.667L408.273 137.547L410.163 137.619L412.255 137.882L414.5 138.33L416.841 138.951L419.221 139.73L421.581 140.649L423.863 141.683L426.011 142.809L427.973 143.998L429.699 145.22L431.147 146.447L432.283 147.647L433.076 148.791L433.509 149.851L433.571 150.8L433.259 151.616L432.582 152.279L431.556 152.771L430.207 153.082L428.567 153.202L426.678 153.13L424.585 152.867L422.341 152.419L420 151.798L417.62 151.019L415.26 150.1L412.977 149.066L410.829 147.94L408.868 146.751L407.142 145.529L405.693 144.302L404.558 143.102L403.764 141.958L403.331 140.898L403.27 139.949L403.582 139.133Z" stroke="black"/>
<path d="M426.624 147.277L427.644 148.604L428.516 150.023L429.218 151.5L429.734 152.997L430.05 154.479L430.159 155.909L430.057 157.251L429.749 158.472L429.24 159.543L428.544 160.436L427.678 161.131L426.663 161.61L425.524 161.86L424.289 161.877L422.989 161.659L421.655 161.212L420.321 160.547L419.019 159.68L417.781 158.632L416.638 157.43L415.618 156.104L414.746 154.684L414.044 153.208L413.528 151.71L413.212 150.228L413.104 148.799L413.205 147.457L413.514 146.235L414.022 145.165L414.718 144.271L415.584 143.576L416.6 143.098L417.739 142.847L418.973 142.83L420.274 143.048L421.607 143.495L422.942 144.161L424.244 145.028L425.481 146.075L426.624 147.277Z" fill="#18560E"/>
<path d="M426.624 147.277L427.644 148.604L428.516 150.023L429.218 151.5L429.734 152.997L430.05 154.479L430.159 155.909L430.057 157.251L429.749 158.472L429.24 159.543L428.544 160.436L427.678 161.131L426.663 161.61L425.524 161.86L424.289 161.877L422.989 161.659L421.655 161.212L420.321 160.547L419.019 159.68L417.781 158.632L416.638 157.43L415.618 156.104L414.746 154.684L414.044 153.208L413.528 151.71L413.212 150.228L413.104 148.799L413.205 147.457L413.514 146.235L414.022 145.165L414.718 144.271L415.584 143.576L416.6 143.098L417.739 142.847L418.973 142.83L420.274 143.048L421.607 143.495L422.942 144.161L424.244 145.028L425.481 146.075L426.624 147.277Z" stroke="black"/>
<path d="M428.757 145.5L430.192 146.345L431.498 147.386L432.643 148.598L433.598 149.951L434.341 151.412L434.853 152.943L435.121 154.509L435.139 156.07L434.906 157.587L434.428 159.024L433.717 160.345L432.79 161.518L431.67 162.513L430.385 163.306L428.966 163.878L427.449 164.215L425.87 164.308L424.268 164.154L422.684 163.759L421.155 163.13L419.72 162.285L418.414 161.244L417.269 160.032L416.313 158.679L415.57 157.218L415.059 155.687L414.791 154.121L414.773 152.56L415.006 151.043L415.484 149.606L416.195 148.285L417.122 147.112L418.242 146.117L419.527 145.323L420.946 144.751L422.463 144.415L424.042 144.322L425.644 144.476L427.228 144.871L428.757 145.5Z" fill="#18560E"/>
<path d="M428.757 145.5L430.192 146.345L431.498 147.386L432.643 148.598L433.598 149.951L434.341 151.412L434.853 152.943L435.121 154.509L435.139 156.07L434.906 157.587L434.428 159.024L433.717 160.345L432.79 161.518L431.67 162.513L430.385 163.306L428.966 163.878L427.449 164.215L425.87 164.308L424.268 164.154L422.684 163.759L421.155 163.13L419.72 162.285L418.414 161.244L417.269 160.032L416.313 158.679L415.57 157.218L415.059 155.687L414.791 154.121L414.773 152.56L415.006 151.043L415.484 149.606L416.195 148.285L417.122 147.112L418.242 146.117L419.527 145.323L420.946 144.751L422.463 144.415L424.042 144.322L425.644 144.476L427.228 144.871L428.757 145.5Z" stroke="black"/>
<path d="M401.323 136.889L401.859 136.641L402.532 136.497L403.336 136.457L404.262 136.523L405.3 136.693L406.437 136.967L407.662 137.339L408.962 137.808L410.322 138.367L411.727 139.011L413.161 139.731L414.61 140.522L416.057 141.373L417.486 142.276L418.882 143.22L420.229 144.195L421.513 145.191L422.72 146.197L423.836 147.201L424.849 148.193L425.748 149.162L426.523 150.096L427.165 150.987L427.669 151.824L428.027 152.598L428.237 153.3L428.296 153.923L428.203 154.46L427.959 154.905L427.567 155.253L427.031 155.501L426.357 155.646L425.553 155.685L424.627 155.619L423.59 155.449L422.452 155.176L421.227 154.803L419.927 154.334L418.568 153.775L417.163 153.132L415.728 152.411L414.28 151.621L412.833 150.769L411.403 149.867L410.007 148.923L408.66 147.947L407.376 146.951L406.17 145.946L405.054 144.941L404.041 143.949L403.142 142.981L402.367 142.046L401.724 141.155L401.221 140.319L400.862 139.545L400.652 138.843L400.594 138.219L400.687 137.682L400.931 137.237L401.323 136.889Z" fill="#18560E"/>
<path d="M413.471 143.29L416.683 146.587C420.561 150.569 425.021 153.939 429.911 156.582V156.582" stroke="#203420" stroke-opacity="0.58" stroke-width="3"/>
<path d="M313.81 106.76C313.458 94.0096 319.918 98.3248 319.088 96.3472C319.024 96.1952 318.905 96.0739 318.764 95.9879C314.256 93.2344 307.477 94.188 299.434 99.4713C298.806 99.8837 298.867 100.814 299.535 101.157L312.321 107.732C313.014 108.088 313.832 107.538 313.81 106.76Z" fill="#18560E" stroke="#18560E" stroke-width="3"/>
<path d="M292.386 110.209C290.319 125.587 282.813 120.661 284.678 124.905C284.795 125.171 285.037 125.364 285.322 125.418C290.021 126.31 298.176 123.865 308.822 118.006C309.536 117.614 309.494 116.576 308.753 116.237L293.814 109.399C293.193 109.114 292.477 109.531 292.386 110.209Z" fill="#18560E" stroke="#18560E" stroke-width="3"/>
<ellipse cx="303.28" cy="109.216" rx="11.7963" ry="11.874" transform="rotate(37.6804 303.28 109.216)" fill="#18560E"/>
<path d="M310.096 99.2952L307.53 106.287C305.845 110.878 301.949 114.558 296.584 116.628V116.628" stroke="#203420" stroke-opacity="0.58" stroke-width="3"/>
<path d="M254.153 96.3298C258.26 78.0901 264.423 81.3472 264.457 79.2164C264.461 78.941 264.266 78.7044 264.015 78.5903C259.55 76.5577 251.021 80.4481 239.412 90.7691C238.847 91.271 239.031 92.1918 239.743 92.4441L252.829 97.0814C253.399 97.2835 254.02 96.9201 254.153 96.3298Z" fill="#18560E" stroke="#18560E" stroke-width="3"/>
<path d="M228.294 106.166C220.309 128.504 213.139 124.869 213.46 129.575C213.493 130.054 213.92 130.403 214.398 130.346C219.829 129.689 230.508 123.311 245.33 111.442C245.967 110.933 245.753 109.92 244.966 109.706L229.512 105.512C229.005 105.374 228.471 105.671 228.294 106.166Z" fill="#18560E" stroke="#18560E" stroke-width="3"/>
<ellipse cx="241.131" cy="102.074" rx="10.6703" ry="19.4409" transform="rotate(38.0026 241.131 102.074)" fill="#18560E"/>
<path d="M252.768 86.1954L248.091 94.9544C243.801 102.986 237.744 109.732 230.544 114.494V114.494" stroke="#203420" stroke-opacity="0.58" stroke-width="3"/>
<path d="M132.846 193.152C143.463 176.559 146.485 174.584 149.236 172.913C149.451 172.783 149.715 172.733 149.956 172.808C154.694 174.28 147.958 183.408 149.35 199.027C149.416 199.774 148.684 200.352 147.981 200.09L133.333 194.636C132.737 194.414 132.503 193.688 132.846 193.152Z" fill="#18560E" stroke="#18560E" stroke-width="3"/>
<path d="M147.236 217.999C137.369 240.157 146.317 242.121 142.301 245.457C141.962 245.739 141.465 245.719 141.151 245.409C137.038 241.351 132.739 229.348 129.032 210.341C128.877 209.547 129.684 208.912 130.421 209.246L146.744 216.65C147.248 216.879 147.462 217.493 147.236 217.999Z" fill="#18560E" stroke="#18560E" stroke-width="3"/>
<ellipse cx="11.9503" cy="19.51" rx="11.9503" ry="19.51" transform="matrix(-0.997866 -0.0652907 -0.0652907 0.997866 152.698 187.56)" fill="#18560E"/>
<path d="M141.466 186.588L138.843 196.544C136.561 205.204 136.688 214.251 139.209 222.627V222.627" stroke="#203420" stroke-opacity="0.58" stroke-width="3"/>
<path d="M218.544 229.133C240.126 212.666 249.341 216.329 237.087 211.634C224.717 206.895 188.412 206.001 212.133 209.406C212.545 209.465 212.915 209.779 213.002 210.186L216.935 228.566C217.089 229.286 217.956 229.582 218.544 229.133Z" fill="#588A50" stroke="#588A50" stroke-width="3"/>
<path d="M197.543 209.352C178.052 219.074 177.238 208.085 174.036 213.038C173.853 213.321 173.842 213.685 174.01 213.974C177.022 219.15 186.913 225.203 202.913 231.113C203.668 231.392 204.429 230.697 204.224 229.918L198.988 209.975C198.826 209.359 198.116 209.065 197.543 209.352Z" fill="#588A50" stroke="#588A50" stroke-width="3"/>
<ellipse cx="14.0755" cy="19.7537" rx="14.0755" ry="19.7537" transform="matrix(-0.0101125 0.999949 -0.999997 -0.00249007 228.126 205.234)" fill="#588A50"/>
<path d="M242.531 214.233L220.376 215.865L210.811 217.217C198.495 218.958 185.455 217.336 172.747 212.48V212.48" stroke="#203420" stroke-opacity="0.58"/>
<path d="M209.588 232.559L208.998 231.558C206.15 226.72 201.897 222.76 196.598 220.01V220.01C193.816 218.566 190.777 217.472 187.554 216.755L183.436 215.838" stroke="#203420" stroke-opacity="0.58"/>
<path d="M233.619 209.46L227.03 209.581C223.268 209.65 219.472 210.362 215.754 211.697V211.697C213.744 212.418 211.765 213.319 209.834 214.39L203.815 217.731M197.275 211.651L185.037 215.678" stroke="#203420" stroke-opacity="0.58"/>
<path d="M143.337 114.855C132.425 96.3025 124.518 96.1508 135.088 96.4842C145.782 96.8216 173.079 107.348 154.556 102.599C154.152 102.495 153.693 102.643 153.453 102.984L145.039 114.94C144.617 115.54 143.709 115.488 143.337 114.855Z" fill="#588A50" stroke="#588A50" stroke-width="3"/>
<path d="M165.492 107.212C176.814 120.057 180.843 112.534 181.731 116.918C181.799 117.251 181.665 117.593 181.39 117.792C177.509 120.601 168.401 121.972 154.915 121.419C154.108 121.386 153.678 120.454 154.172 119.816L163.921 107.241C164.31 106.738 165.072 106.734 165.492 107.212Z" fill="#588A50" stroke="#588A50" stroke-width="3"/>
<ellipse cx="11.2549" cy="15.9731" rx="11.2549" ry="15.9731" transform="matrix(-0.380407 0.924819 0.924819 0.380407 143.778 94.5437)" fill="#588A50"/>
<path d="M130.212 96.7138L146.253 104.771L152.942 108.706C161.625 113.814 171.879 116.659 182.89 117.017V117.017" stroke="#203420" stroke-opacity="0.58"/>
<path d="M149.108 120.403L149.823 119.876C153.485 117.176 157.912 115.566 162.738 115.18V115.18C165.258 114.978 167.858 115.112 170.478 115.579L173.857 116.182" stroke="#203420" stroke-opacity="0.58"/>
<path d="M138.357 95.9566L143.243 98.0846C146.031 99.2989 148.644 100.998 151.005 103.131V103.131C152.282 104.285 153.48 105.56 154.589 106.947L158.044 111.27M164.824 108.816L172.712 115.568" stroke="#203420" stroke-opacity="0.58"/>
</svg>
