<svg width="32768" height="9525" viewBox="0 0 32768 9525" fill="none" xmlns="http://www.w3.org/2000/svg">
<g clip-path="url(#clip0_2_3)">
<path d="M292.657 3298.97C37.9263 1558.82 127.406 1285.97 203.142 995.316C203.19 995.131 203.302 994.957 203.435 994.841C578.954 668.595 626.733 1708.32 1591.37 2449.52C1591.85 2449.89 1591.84 2450.73 1591.34 2451.06L293.808 3299.63C293.339 3299.94 292.747 3299.58 292.657 3298.97Z" fill="#18560E" stroke="#18560E" stroke-width="3"/>
<path d="M2304.21 3430.72C2880.66 5428.18 3529.79 4767.08 3404.04 5334.36C3403.96 5334.68 3403.74 5334.98 3403.46 5335.05C2975.15 5448.64 2071.53 5098.99 805.922 4280.73C805.377 4280.38 805.39 4279.45 805.954 4279.13L2303.12 3430.17C2303.54 3429.93 2304.06 3430.21 2304.21 3430.72Z" fill="#18560E" stroke="#18560E" stroke-width="3"/>
<path d="M364.013 3732.88C490.818 4304.8 1563 4797.89 1921.61 4407.37C2613.28 3537.94 2386.74 3480.45 1803.05 2657.9C1460 2238.11 1321.55 2250.95 599.114 2852.08C240.504 3242.6 239.122 2927.06 364.013 3732.88Z" fill="#18560E"/>
<path d="M274.527 1410.57C1045.25 2458.47 1388.93 3254.39 1626.76 3920.8C1864.6 4587.21 3053.33 5062.22 3053.33 5062.22" stroke="#203420" stroke-opacity="0.58" stroke-width="100"/>
<path d="M2332.27 2672.24C2077.54 932.083 2167.02 659.241 2242.75 368.583C2242.8 368.399 2242.91 368.225 2243.04 368.109C2618.56 41.8622 2666.34 1081.58 3630.98 1822.78C3631.46 1823.15 3631.45 1823.99 3630.94 1824.32L2333.42 2672.9C2332.95 2673.2 2332.36 2672.85 2332.27 2672.24Z" fill="#588A50" stroke="#18560E" stroke-width="3"/>
<path d="M4343.82 2803.99C4920.28 4801.45 5569.4 4140.35 5443.65 4707.62C5443.58 4707.95 5443.35 4708.24 5443.07 4708.32C5014.76 4821.91 4111.15 4472.26 2845.53 3654C2844.99 3653.64 2845 3652.72 2845.56 3652.4L4342.73 2803.44C4343.15 2803.2 4343.67 2803.48 4343.82 2803.99Z" fill="#588A50" stroke="#18560E" stroke-width="3"/>
<path d="M2403.62 3106.15C2530.43 3678.07 3602.61 4171.16 3961.22 3780.64C4652.89 2911.21 4426.35 2853.72 3842.66 2031.16C3499.61 1611.38 3361.17 1624.22 2638.73 2225.35C2280.12 2615.87 2278.73 2300.33 2403.62 3106.15Z" fill="#588A50"/>
<path d="M2314.14 783.839C3084.86 1831.74 3428.54 2627.66 3666.37 3294.07C3904.21 3960.48 5092.94 4435.49 5092.94 4435.49" stroke="#203420" stroke-opacity="0.58" stroke-width="100"/>
<path d="M2242.99 1202.7C2361.44 1444.95 2534.07 1914.47 2726.35 1958.05C2918.62 2001.63 3106.03 2187.95 3106.03 2187.95" stroke="#203420" stroke-opacity="0.58" stroke-width="100"/>
<path d="M3992.17 3699.52C3719.35 4088.11 2822.4 3085.4 2796.38 3056.17C2795.56 3055.25 2795.37 3055.08 2794.52 3054.21L2407.86 2659.6M4306.93 2891.2L3992.17 3699.52M3605.01 3055.52C3881.85 3449.84 3423.77 1675.82 3423.77 1675.82" stroke="#203420" stroke-opacity="0.58" stroke-width="100"/>
<path d="M29113.4 6404.12C29602.7 8031.71 29550.7 8319.19 29514.9 8620.6C29514.8 8620.77 29514.8 8620.94 29514.7 8621.07C29185.6 9032.03 28997.1 8033.46 27937.7 7554.01C27937.1 7553.76 27937 7552.95 27937.4 7552.52L29112.1 6403.67C29112.6 6403.26 29113.2 6403.51 29113.4 6404.12Z" fill="#588A50" stroke="#18560E" stroke-width="3"/>
<path d="M27095.9 6778.3C26251.9 4981.02 25696.3 5785.78 25744.4 5202.91C25744.5 5202.61 25744.6 5202.32 25744.9 5202.19C26155.2 4984.77 27100.8 5098.87 28469.9 5578.01C28470.6 5578.22 28470.7 5579.12 28470.2 5579.55L27097.1 6778.65C27096.7 6778.99 27096.1 6778.8 27095.9 6778.3Z" fill="#588A50" stroke="#18560E" stroke-width="3"/>
<path d="M28983.6 6000.1C28780 5475.93 27647.3 5264.51 27343.8 5733.63C26774.2 6751.4 27007.2 6750.69 27698.9 7404.33C28096.9 7726.63 28232.8 7679.58 28869.4 6914.88C29172.9 6445.76 29217.1 6752.09 28983.6 6000.1Z" fill="#588A50"/>
<path d="M29387.6 8234.81C28479.3 7408.87 28029.7 6721.16 27702.9 6132.88C27376.1 5544.6 26130 5379.87 26130 5379.87" stroke="#203420" stroke-opacity="0.58" stroke-width="100"/>
<path d="M29269.5 7589.2C29118.9 7383.34 28883.6 6970.13 28686.5 6975.8C28489.5 6981.47 28407.5 7067.5 28407.5 7067.5" stroke="#203420" stroke-opacity="0.58" stroke-width="100"/>
<path d="M27324 5820.2C27534.7 5390.33 28003 5618.01 28049.1 5641.74C28051.8 5643.11 28054.2 5644.17 28056.9 5645.18L28802.6 5916.12M27318.7 6900.18C27109.5 6655.56 27157.7 6697.76 27070.4 6308.73C27034.5 6082.94 27080.9 5965.11 27332.4 5777.1M27796.2 6349.4C27467.5 6035.31 27743.8 7235.9 27743.8 7235.9M27808 6288.79C27913.8 5743.67 29117.9 6750.72 29117.9 6750.72" stroke="#203420" stroke-opacity="0.58" stroke-width="100"/>
<path d="M2719.69 7118.56C2282.78 8694.91 2331.36 8935.7 2365.45 9193.04C2365.48 9193.26 2365.59 9193.47 2365.75 9193.61C2666.93 9467.62 2833.52 8531.08 3794.5 7816.56C3794.99 7816.19 3794.99 7815.35 3794.48 7815.02L2720.83 7118.01C2720.4 7117.73 2719.84 7118.01 2719.69 7118.56Z" fill="#18560E" stroke="#18560E" stroke-width="3"/>
<path d="M4556.06 6898.96C5314.66 5075.22 5823.83 5636.23 5777.42 5133.16C5777.38 5132.77 5777.14 5132.41 5776.8 5132.34C5402.49 5051.97 4543.16 5411.65 3300.68 6210.51C3300.13 6210.87 3300.14 6211.79 3300.71 6212.1L4555 6899.41C4555.39 6899.63 4555.87 6899.41 4556.06 6898.96Z" fill="#18560E" stroke="#18560E" stroke-width="3"/>
<path d="M2835.71 6725.15C3018.32 6204.86 4047.33 5707.79 4325.64 6040.64C4848.64 6787.05 4636.76 6850.12 4010.86 7618.63C3650.55 8013.1 3526.75 8008.54 2944.08 7504.76C2665.77 7171.91 2627.11 7455.52 2835.71 6725.15Z" fill="#18560E"/>
<path d="M2479.26 8816.32C3301.18 7835.91 3706.66 7103.42 4000.98 6492.63C4295.3 5881.84 5427.67 5395.15 5427.67 5395.15" stroke="#203420" stroke-opacity="0.58" stroke-width="100"/>
<g filter="url(#filter0_d_2_3)">
<path d="M5790.48 7301.11C5808.79 7939.99 6736.01 7898.62 7149.33 7132.24C7562.65 6365.87 7857.94 6797.7 8366.54 7087.16C8875.14 7376.63 9184.27 6276.16 9586.97 6154.54C9908.39 6057.47 10136.9 6258.45 10216 6343.53C10235.8 6364.83 10264.8 6375.79 10294.1 6370.41C11016.4 6237.79 11428.5 6158.97 11539.3 5806.42C11651.1 5450.84 11563.1 5462.79 12242.3 5267.68C12259.5 5262.75 12277.9 5263.4 12293.9 5269.83L12562.6 5377.88" stroke="#18560E" stroke-width="154"/>
</g>
<path d="M30338.7 2371.88C30593.4 631.721 30503.9 358.879 30428.2 68.2211C30428.1 68.0367 30428 67.8627 30427.9 67.7467C30052.4 -258.5 30004.6 781.221 29039.9 1522.42C29039.5 1522.79 29039.5 1523.63 29040 1523.96L30337.5 2372.54C30338 2372.84 30338.6 2372.49 30338.7 2371.88Z" fill="#18560E" stroke="#18560E" stroke-width="3"/>
<path d="M28327.1 2503.63C27750.6 4501.09 27101.5 3839.99 27227.3 4407.26C27227.3 4407.59 27227.6 4407.88 27227.9 4407.96C27656.2 4521.54 28559.8 4171.89 29825.4 3353.63C29825.9 3353.28 29825.9 3352.36 29825.4 3352.04L28328.2 2503.08C28327.8 2502.84 28327.3 2503.11 28327.1 2503.63Z" fill="#18560E" stroke="#18560E" stroke-width="3"/>
<path d="M30267.3 2805.79C30140.5 3377.7 29068.3 3870.8 28709.7 3480.28C28018 2610.85 28244.6 2553.36 28828.3 1730.8C29171.3 1311.02 29309.8 1323.86 30032.2 1924.99C30390.8 2315.51 30392.2 1999.97 30267.3 2805.79Z" fill="#18560E"/>
<path d="M30356.8 483.477C29586.1 1531.37 29242.4 2327.29 29004.6 2993.71C28766.7 3660.12 27578 4135.13 27578 4135.13" stroke="#203420" stroke-opacity="0.58" stroke-width="100"/>
<path d="M15979 6969.6C15606.7 8688.44 15677.5 8966.73 15733.3 9261.86C15733.4 9262.05 15733.5 9262.23 15733.6 9262.35C16086.1 9613.34 16204.3 8579.26 17217.1 7905.27C17217.6 7904.93 17217.6 7904.09 17217.1 7903.73L15980.2 6969.02C15979.8 6968.68 15979.2 6968.99 15979 6969.6Z" fill="#18560E" stroke="#18560E" stroke-width="3"/>
<path d="M17994.9 6974.72C18705.6 5021 19308.4 5724.65 19221.4 5150.15C19221.4 5149.82 19221.2 5149.51 19220.9 5149.42C18801.3 5007.01 17876 5294.51 16557.8 6024.95C16557.2 6025.27 16557.1 6026.19 16557.7 6026.55L17993.8 6975.2C17994.2 6975.46 17994.7 6975.22 17994.9 6974.72Z" fill="#18560E" stroke="#18560E" stroke-width="3"/>
<path d="M16079.7 6541.53C16245 5979.54 17348.2 5560.38 17679.5 5974.35C18310.5 6888.73 18080.6 6930.71 17442.4 7711.74C17071.6 8107.26 16934.4 8085.06 16254.4 7436.26C15923.2 7022.3 15900.4 7337.02 16079.7 6541.53Z" fill="#18560E"/>
<path d="M15832.7 8852.41C16672.8 7859.26 17069.7 7088.51 17352.3 6439.78C17634.8 5791.05 18853 5397.84 18853 5397.84" stroke="#203420" stroke-opacity="0.58" stroke-width="100"/>
<g filter="url(#filter1_d_2_3)">
<path d="M31226.2 4635.66C31485.2 5421.39 29514 5712.37 28287 4930.14C27059.9 4147.9 26639.4 4783.17 25703.5 5323.39C24767.6 5863.62 23742 5312.13 22995.7 5119.58C22249.5 4927.03 21491 4631.47 20660.8 5119.58C19275 5105.93 19602.9 5523.31 19287.8 5119.58C18972.7 4715.85 19129.8 4438.32 16738.9 4528.76C16738.9 4528.76 15805.5 4528.76 16029.1 4772.63" stroke="#18560E" stroke-width="400"/>
</g>
<path d="M906.643 4703.01C647.621 5488.03 2619.37 5778.75 3846.7 4997.22C5074.03 4215.69 5494.69 4850.38 6430.85 5390.13C7367.01 5929.87 8530.54 4703.01 9435.18 4703.01C10339.8 4703.01 12309.8 5390.13 12309.8 5390.13C13957.1 5498.53 14491.6 4146.65 13411.4 4582.74C12331.2 5018.84 14498.4 5024.78 15675 4778.9L16250.6 4582.74" stroke="#18560E" stroke-width="400"/>
<g filter="url(#filter2_d_2_3)">
<path d="M26764.1 8466.38C26650.2 9135.35 25649.3 8950.95 25313.2 8082.35C24977 7213.75 24592.8 7622.92 23997.9 7849.99C23402.9 8077.06 23229.1 6873.02 22809.6 6683.95C22471.5 6531.56 22191.6 6713.14 22095.8 6789.33C22073 6807.42 22042.7 6814.17 22014.5 6804.99C21246.7 6554.87 20809.1 6409.57 20740.4 6021.26C20671.3 5629.86 20765.5 5656.42 20053.3 5346.71C20037.2 5339.73 20019.1 5337.85 20002.6 5341.76L19692.2 5415.19" stroke="#18560E" stroke-width="154"/>
</g>
<path d="M22906.5 6889.66L22928 6912.37L22945 6942.75L22957.2 6980.04L22964.2 7023.32L22965.8 7071.53L22962.1 7123.48L22953.2 7177.9L22939.1 7233.43L22920.3 7288.72L22897.3 7342.41L22870.6 7393.16L22840.9 7439.74L22808.8 7480.99L22775.3 7515.9L22741.1 7543.61L22707 7563.43L22673.9 7574.89L22642.7 7577.69L22614 7571.77L22588.6 7557.27L22567.1 7534.55L22550.1 7504.17L22537.9 7466.89L22530.9 7423.6L22529.2 7375.39L22532.9 7323.44L22541.9 7269.03L22556 7213.49L22574.7 7158.2L22597.7 7104.52L22624.5 7053.76L22654.2 7007.19L22686.2 6965.94L22719.8 6931.03L22754 6903.32L22788.1 6883.49L22821.2 6872.04L22852.4 6869.24L22881.1 6875.16L22906.5 6889.66Z" fill="#18560E"/>
<path d="M22906.5 6889.66L22928 6912.37L22945 6942.75L22957.2 6980.04L22964.2 7023.32L22965.8 7071.53L22962.1 7123.48L22953.2 7177.9L22939.1 7233.43L22920.3 7288.72L22897.3 7342.41L22870.6 7393.16L22840.9 7439.74L22808.8 7480.99L22775.3 7515.9L22741.1 7543.61L22707 7563.43L22673.9 7574.89L22642.7 7577.69L22614 7571.77L22588.6 7557.27L22567.1 7534.55L22550.1 7504.17L22537.9 7466.89L22530.9 7423.6L22529.2 7375.39L22532.9 7323.44L22541.9 7269.03L22556 7213.49L22574.7 7158.2L22597.7 7104.52L22624.5 7053.76L22654.2 7007.19L22686.2 6965.94L22719.8 6931.03L22754 6903.32L22788.1 6883.49L22821.2 6872.04L22852.4 6869.24L22881.1 6875.16L22906.5 6889.66Z" stroke="black"/>
<path d="M22706.6 7420.25L22668.5 7436.1L22627.2 7447.4L22583.9 7453.87L22539.5 7455.34L22495.2 7451.79L22452.1 7443.3L22411.2 7430.09L22373.5 7412.46L22340 7390.87L22311.4 7365.84L22288.6 7337.98L22272 7307.99L22262.1 7276.6L22259.1 7244.59L22263 7212.74L22273.8 7181.83L22291.3 7152.64L22314.9 7125.87L22344.1 7102.19L22378.3 7082.18L22416.4 7066.33L22457.7 7055.03L22501 7048.57L22545.4 7047.09L22589.7 7050.64L22632.8 7059.13L22673.7 7072.35L22711.4 7089.97L22744.9 7111.57L22773.4 7136.6L22796.3 7164.45L22812.9 7194.44L22822.8 7225.83L22825.8 7257.85L22821.9 7289.7L22811 7320.6L22793.6 7349.79L22770 7376.56L22740.7 7400.24L22706.6 7420.25Z" fill="#18560E"/>
<path d="M22706.6 7420.25L22668.5 7436.1L22627.2 7447.4L22583.9 7453.87L22539.5 7455.34L22495.2 7451.79L22452.1 7443.3L22411.2 7430.09L22373.5 7412.46L22340 7390.87L22311.4 7365.84L22288.6 7337.98L22272 7307.99L22262.1 7276.6L22259.1 7244.59L22263 7212.74L22273.8 7181.83L22291.3 7152.64L22314.9 7125.87L22344.1 7102.19L22378.3 7082.18L22416.4 7066.33L22457.7 7055.03L22501 7048.57L22545.4 7047.09L22589.7 7050.64L22632.8 7059.13L22673.7 7072.35L22711.4 7089.97L22744.9 7111.57L22773.4 7136.6L22796.3 7164.45L22812.9 7194.44L22822.8 7225.83L22825.8 7257.85L22821.9 7289.7L22811 7320.6L22793.6 7349.79L22770 7376.56L22740.7 7400.24L22706.6 7420.25Z" stroke="black"/>
<path d="M22764.9 7489.36L22742.2 7519.73L22713.3 7545.22L22678.9 7565.21L22639.8 7579.19L22597 7586.84L22551.6 7587.95L22504.7 7582.5L22457.4 7570.62L22410.9 7552.62L22366.3 7528.92L22324.8 7500.12L22287.3 7466.92L22254.9 7430.15L22228.2 7390.69L22207.9 7349.54L22194.6 7307.7L22188.6 7266.2L22189.9 7226.06L22198.7 7188.27L22214.6 7153.77L22237.3 7123.4L22266.2 7097.91L22300.7 7077.92L22339.7 7063.93L22382.5 7056.29L22427.9 7055.18L22474.8 7060.63L22522.1 7072.5L22568.6 7090.51L22613.2 7114.21L22654.7 7143.01L22692.2 7176.2L22724.7 7212.98L22751.3 7252.43L22771.6 7293.59L22784.9 7335.43L22790.9 7376.93L22789.6 7417.07L22780.8 7454.85L22764.9 7489.36Z" fill="#18560E"/>
<path d="M22764.9 7489.36L22742.2 7519.73L22713.3 7545.22L22678.9 7565.21L22639.8 7579.19L22597 7586.84L22551.6 7587.95L22504.7 7582.5L22457.4 7570.62L22410.9 7552.62L22366.3 7528.92L22324.8 7500.12L22287.3 7466.92L22254.9 7430.15L22228.2 7390.69L22207.9 7349.54L22194.6 7307.7L22188.6 7266.2L22189.9 7226.06L22198.7 7188.27L22214.6 7153.77L22237.3 7123.4L22266.2 7097.91L22300.7 7077.92L22339.7 7063.93L22382.5 7056.29L22427.9 7055.18L22474.8 7060.63L22522.1 7072.5L22568.6 7090.51L22613.2 7114.21L22654.7 7143.01L22692.2 7176.2L22724.7 7212.98L22751.3 7252.43L22771.6 7293.59L22784.9 7335.43L22790.9 7376.93L22789.6 7417.07L22780.8 7454.85L22764.9 7489.36Z" stroke="black"/>
<path d="M22969.9 6849.06L22978.5 6864.85L22984.3 6883.38L22987.1 6904.46L22987 6927.84L22984 6953.28L22978 6980.5L22969.2 7009.19L22957.7 7039.04L22943.5 7069.73L22926.8 7100.92L22907.9 7132.27L22886.9 7163.43L22864.1 7194.06L22839.6 7223.83L22813.8 7252.41L22787 7279.49L22759.4 7304.77L22731.4 7327.98L22703.2 7348.85L22675.2 7367.17L22647.7 7382.73L22620.9 7395.35L22595.2 7404.91L22570.9 7411.3L22548.1 7414.44L22527.3 7414.31L22508.5 7410.9L22492 7404.25L22478 7394.43L22466.6 7381.56L22458 7365.77L22452.3 7347.24L22449.4 7326.16L22449.5 7302.78L22452.6 7277.34L22458.5 7250.12L22467.3 7221.43L22478.9 7191.58L22493.1 7160.89L22509.7 7129.7L22528.6 7098.35L22549.6 7067.19L22572.5 7036.56L22596.9 7006.79L22622.7 6978.21L22649.5 6951.13L22677.1 6925.85L22705.1 6902.64L22733.3 6881.77L22761.3 6863.45L22788.9 6847.89L22815.6 6835.27L22841.3 6825.71L22865.7 6819.32L22888.4 6816.18L22909.3 6816.31L22928.1 6819.72L22944.5 6826.37L22958.5 6836.19L22969.9 6849.06Z" fill="#18560E"/>
<path d="M22800.6 7112.16L22552.6 7263.1C22542.3 7269.38 22533.5 7277.87 22526.8 7287.98L22431.1 7431.58" stroke="#203420" stroke-opacity="0.58" stroke-width="3"/>
<path d="M21910.3 6614.75L21940.2 6596.39L21967.5 6567.73L21991.5 6529.46L22011.5 6482.53L22027.1 6428.1L22038 6367.5L22043.8 6302.24L22044.4 6233.91L22039.7 6164.2L22030 6094.82L22015.4 6027.48L21996.3 5963.85L21973.2 5905.48L21946.6 5853.82L21917.2 5810.14L21885.7 5775.51L21852.9 5750.78L21819.6 5736.57L21786.6 5733.23L21754.8 5740.83L21724.8 5759.18L21697.6 5787.85L21673.6 5826.12L21653.6 5873.05L21637.9 5927.48L21627.1 5988.07L21621.3 6053.34L21620.7 6121.67L21625.3 6191.38L21635.1 6260.76L21649.7 6328.09L21668.8 6391.73L21691.9 6450.09L21718.5 6501.75L21747.9 6545.44L21779.4 6580.07L21812.2 6604.79L21845.5 6619L21878.5 6622.35L21910.3 6614.75Z" fill="#18560E"/>
<path d="M21910.3 6614.75L21940.2 6596.39L21967.5 6567.73L21991.5 6529.46L22011.5 6482.53L22027.1 6428.1L22038 6367.5L22043.8 6302.24L22044.4 6233.91L22039.7 6164.2L22030 6094.82L22015.4 6027.48L21996.3 5963.85L21973.2 5905.48L21946.6 5853.82L21917.2 5810.14L21885.7 5775.51L21852.9 5750.78L21819.6 5736.57L21786.6 5733.23L21754.8 5740.83L21724.8 5759.18L21697.6 5787.85L21673.6 5826.12L21653.6 5873.05L21637.9 5927.48L21627.1 5988.07L21621.3 6053.34L21620.7 6121.67L21625.3 6191.38L21635.1 6260.76L21649.7 6328.09L21668.8 6391.73L21691.9 6450.09L21718.5 6501.75L21747.9 6545.44L21779.4 6580.07L21812.2 6604.79L21845.5 6619L21878.5 6622.35L21910.3 6614.75Z" stroke="black"/>
<path d="M21844.3 5938.78L21807.2 5907.25L21765.4 5879.82L21720 5857.17L21672 5839.85L21622.7 5828.3L21573.2 5822.79L21524.8 5823.46L21478.7 5830.3L21435.9 5843.14L21397.6 5861.65L21364.7 5885.39L21338.1 5913.77L21318.2 5946.1L21305.8 5981.57L21300.9 6019.31L21303.9 6058.39L21314.6 6097.86L21332.7 6136.73L21357.8 6174.06L21389.3 6208.92L21426.3 6240.45L21468.1 6267.88L21513.5 6290.53L21561.5 6307.85L21610.8 6319.4L21660.3 6324.91L21708.7 6324.24L21754.9 6317.4L21797.6 6304.56L21835.9 6286.05L21868.8 6262.31L21895.5 6233.92L21915.3 6201.6L21927.8 6166.13L21932.6 6128.39L21929.6 6089.31L21919 6049.84L21900.9 6010.97L21875.8 5973.64L21844.3 5938.78Z" fill="#18560E"/>
<path d="M21844.3 5938.78L21807.2 5907.25L21765.4 5879.82L21720 5857.17L21672 5839.85L21622.7 5828.3L21573.2 5822.79L21524.8 5823.46L21478.7 5830.3L21435.9 5843.14L21397.6 5861.65L21364.7 5885.39L21338.1 5913.77L21318.2 5946.1L21305.8 5981.57L21300.9 6019.31L21303.9 6058.39L21314.6 6097.86L21332.7 6136.73L21357.8 6174.06L21389.3 6208.92L21426.3 6240.45L21468.1 6267.88L21513.5 6290.53L21561.5 6307.85L21610.8 6319.4L21660.3 6324.91L21708.7 6324.24L21754.9 6317.4L21797.6 6304.56L21835.9 6286.05L21868.8 6262.31L21895.5 6233.92L21915.3 6201.6L21927.8 6166.13L21932.6 6128.39L21929.6 6089.31L21919 6049.84L21900.9 6010.97L21875.8 5973.64L21844.3 5938.78Z" stroke="black"/>
<path d="M21927.6 5880.45L21911.6 5837.79L21887.3 5798.51L21855.5 5763.57L21816.9 5733.84L21772.4 5710.05L21723.2 5692.78L21670.5 5682.47L21615.5 5679.35L21559.6 5683.52L21504.2 5694.86L21450.7 5713.1L21400.3 5737.79L21354.3 5768.32L21313.9 5803.94L21280 5843.77L21253.5 5886.84L21235.1 5932.07L21225.1 5978.36L21223.8 6024.57L21231.3 6069.56L21247.3 6112.22L21271.6 6151.5L21303.4 6186.44L21342 6216.17L21386.5 6239.96L21435.7 6257.22L21488.4 6267.54L21543.4 6270.66L21599.3 6266.49L21654.7 6255.15L21708.3 6236.91L21758.6 6212.22L21804.6 6181.69L21845 6146.07L21878.9 6106.24L21905.4 6063.17L21923.9 6017.94L21933.8 5971.65L21935.1 5925.44L21927.6 5880.45Z" fill="#18560E"/>
<path d="M21927.6 5880.45L21911.6 5837.79L21887.3 5798.51L21855.5 5763.57L21816.9 5733.84L21772.4 5710.05L21723.2 5692.78L21670.5 5682.47L21615.5 5679.35L21559.6 5683.52L21504.2 5694.86L21450.7 5713.1L21400.3 5737.79L21354.3 5768.32L21313.9 5803.94L21280 5843.77L21253.5 5886.84L21235.1 5932.07L21225.1 5978.36L21223.8 6024.57L21231.3 6069.56L21247.3 6112.22L21271.6 6151.5L21303.4 6186.44L21342 6216.17L21386.5 6239.96L21435.7 6257.22L21488.4 6267.54L21543.4 6270.66L21599.3 6266.49L21654.7 6255.15L21708.3 6236.91L21758.6 6212.22L21804.6 6181.69L21845 6146.07L21878.9 6106.24L21905.4 6063.17L21923.9 6017.94L21933.8 5971.65L21935.1 5925.44L21927.6 5880.45Z" stroke="black"/>
<path d="M21967.8 6683.43L21981.8 6668.44L21993.4 6649.32L22002.5 6626.27L22009.1 6599.54L22013 6569.44L22014.3 6536.28L22013 6500.44L22008.9 6462.29L22002.2 6422.27L21993 6380.82L21981.4 6338.37L21967.4 6295.41L21951.2 6252.4L21933.1 6209.81L21913.1 6168.1L21891.6 6127.75L21868.8 6089.18L21844.9 6052.82L21820.1 6019.07L21794.8 5988.3L21769.2 5960.84L21743.7 5937L21718.4 5917.04L21693.6 5901.17L21669.7 5889.57L21646.9 5882.37L21625.5 5879.65L21605.6 5881.43L21587.5 5887.7L21571.4 5898.39L21557.5 5913.37L21545.9 5932.49L21536.8 5955.54L21530.2 5982.27L21526.2 6012.37L21524.9 6045.53L21526.3 6081.38L21530.4 6119.52L21537 6159.54L21546.3 6201L21557.9 6243.44L21571.9 6286.4L21588.1 6329.42L21606.2 6372.01L21626.1 6413.71L21647.6 6454.07L21670.5 6492.63L21694.4 6528.99L21719.2 6562.74L21744.5 6593.52L21770 6620.97L21795.6 6644.81L21820.9 6664.78L21845.6 6680.64L21869.5 6692.24L21892.3 6699.44L21913.8 6702.16L21933.7 6700.38L21951.8 6694.11L21967.8 6683.43Z" fill="#18560E"/>
<path d="M21858.6 6323.53L21628.3 6060.41C21620.8 6051.89 21615.2 6041.9 21611.7 6031.03L21547 5828.78" stroke="#203420" stroke-opacity="0.58" stroke-width="3"/>
<path d="M22729 6552.86L22724 6526.18L22728.3 6493.74L22741.6 6456.34L22763.8 6414.89L22794.1 6370.43L22832 6324.03L22876.4 6276.85L22926.2 6230.05L22980.3 6184.78L23037.3 6142.16L23095.8 6103.23L23154.3 6068.95L23211.4 6040.16L23265.8 6017.59L23316 6001.77L23360.8 5993.11L23399.2 5991.81L23430.2 5997.9L23453 6011.25L23467 6031.51L23472 6058.19L23467.7 6090.63L23454.4 6128.03L23432.2 6169.47L23401.9 6213.94L23364 6260.33L23319.6 6307.51L23269.8 6354.31L23215.7 6399.58L23158.7 6442.21L23100.2 6481.14L23041.7 6515.42L22984.6 6544.2L22930.2 6566.78L22880 6582.59L22835.1 6591.26L22796.8 6592.56L22765.8 6586.46L22743 6573.12L22729 6552.86Z" fill="#18560E"/>
<path d="M22729 6552.86L22724 6526.18L22728.3 6493.74L22741.6 6456.34L22763.8 6414.89L22794.1 6370.43L22832 6324.03L22876.4 6276.85L22926.2 6230.05L22980.3 6184.78L23037.3 6142.16L23095.8 6103.23L23154.3 6068.95L23211.4 6040.16L23265.8 6017.59L23316 6001.77L23360.8 5993.11L23399.2 5991.81L23430.2 5997.9L23453 6011.25L23467 6031.51L23472 6058.19L23467.7 6090.63L23454.4 6128.03L23432.2 6169.47L23401.9 6213.94L23364 6260.33L23319.6 6307.51L23269.8 6354.31L23215.7 6399.58L23158.7 6442.21L23100.2 6481.14L23041.7 6515.42L22984.6 6544.2L22930.2 6566.78L22880 6582.59L22835.1 6591.26L22796.8 6592.56L22765.8 6586.46L22743 6573.12L22729 6552.86Z" stroke="black"/>
<path d="M23266.4 6123.89L23312.4 6119.99L23358.3 6121.1L23402.9 6127.19L23445.2 6138.12L23484.1 6153.63L23518.7 6173.31L23548 6196.7L23571.4 6223.21L23588.3 6252.2L23598.3 6282.94L23601.1 6314.69L23596.7 6346.65L23585.2 6378.05L23566.8 6408.11L23542 6436.09L23511.5 6461.3L23475.9 6483.12L23436.2 6501.01L23393.3 6514.53L23348.3 6523.35L23302.3 6527.26L23256.4 6526.15L23211.7 6520.05L23169.4 6509.12L23130.5 6493.62L23096 6473.93L23066.7 6450.54L23043.3 6424.03L23026.4 6395.04L23016.4 6364.3L23013.5 6332.55L23018 6300.59L23029.5 6269.19L23047.9 6239.13L23072.6 6211.15L23103.2 6185.95L23138.7 6164.13L23178.5 6146.24L23221.4 6132.71L23266.4 6123.89Z" fill="#18560E"/>
<path d="M23266.4 6123.89L23312.4 6119.99L23358.3 6121.1L23402.9 6127.19L23445.2 6138.12L23484.1 6153.63L23518.7 6173.31L23548 6196.7L23571.4 6223.21L23588.3 6252.2L23598.3 6282.94L23601.1 6314.69L23596.7 6346.65L23585.2 6378.05L23566.8 6408.11L23542 6436.09L23511.5 6461.3L23475.9 6483.12L23436.2 6501.01L23393.3 6514.53L23348.3 6523.35L23302.3 6527.26L23256.4 6526.15L23211.7 6520.05L23169.4 6509.12L23130.5 6493.62L23096 6473.93L23066.7 6450.54L23043.3 6424.03L23026.4 6395.04L23016.4 6364.3L23013.5 6332.55L23018 6300.59L23029.5 6269.19L23047.9 6239.13L23072.6 6211.15L23103.2 6185.95L23138.7 6164.13L23178.5 6146.24L23221.4 6132.71L23266.4 6123.89Z" stroke="black"/>
<path d="M23257.9 6044.69L23299.1 6023.25L23342.9 6007.99L23388.2 5999.27L23433.9 5997.32L23478.7 6002.19L23521.8 6013.74L23561.8 6031.71L23598 6055.64L23629.4 6084.94L23655.2 6118.9L23674.8 6156.68L23687.7 6197.35L23693.6 6239.91L23692.3 6283.3L23683.9 6326.47L23668.6 6368.35L23646.7 6407.9L23618.9 6444.15L23585.7 6476.21L23548 6503.3L23506.8 6524.74L23463 6540L23417.7 6548.72L23372.1 6550.67L23327.2 6545.8L23284.2 6534.25L23244.1 6516.29L23207.9 6492.36L23176.5 6463.05L23150.7 6429.09L23131.1 6391.31L23118.2 6350.64L23112.4 6308.08L23113.6 6264.69L23122 6221.52L23137.3 6179.65L23159.2 6140.09L23187 6103.84L23220.2 6071.78L23257.9 6044.69Z" fill="#18560E"/>
<path d="M23257.9 6044.69L23299.1 6023.25L23342.9 6007.99L23388.2 5999.27L23433.9 5997.32L23478.7 6002.19L23521.8 6013.74L23561.8 6031.71L23598 6055.64L23629.4 6084.94L23655.2 6118.9L23674.8 6156.68L23687.7 6197.35L23693.6 6239.91L23692.3 6283.3L23683.9 6326.47L23668.6 6368.35L23646.7 6407.9L23618.9 6444.15L23585.7 6476.21L23548 6503.3L23506.8 6524.74L23463 6540L23417.7 6548.72L23372.1 6550.67L23327.2 6545.8L23284.2 6534.25L23244.1 6516.29L23207.9 6492.36L23176.5 6463.05L23150.7 6429.09L23131.1 6391.31L23118.2 6350.64L23112.4 6308.08L23113.6 6264.69L23122 6221.52L23137.3 6179.65L23159.2 6140.09L23187 6103.84L23220.2 6071.78L23257.9 6044.69Z" stroke="black"/>
<path d="M22643 6572.36L22645.5 6555.56L22652.4 6537.05L22663.7 6517.03L22679.3 6495.72L22699 6473.34L22722.5 6450.15L22749.7 6426.4L22780.2 6402.35L22813.8 6378.26L22849.9 6354.4L22888.3 6331.03L22928.5 6308.4L22970 6286.77L23012.5 6266.36L23055.4 6247.41L23098.3 6230.12L23140.8 6214.68L23182.2 6201.26L23222.3 6190L23260.5 6181.04L23296.4 6174.46L23329.7 6170.34L23360 6168.73L23386.9 6169.64L23410.1 6173.07L23429.5 6178.97L23444.7 6187.28L23455.6 6197.91L23462.2 6210.74L23464.2 6225.63L23461.8 6242.43L23454.9 6260.94L23443.6 6280.96L23428 6302.28L23408.3 6324.66L23384.7 6347.85L23357.5 6371.6L23327 6395.65L23293.5 6419.73L23257.4 6443.6L23219 6466.97L23178.8 6489.59L23137.2 6511.23L23094.8 6531.63L23051.8 6550.59L23008.9 6567.88L22966.5 6583.32L22925 6596.74L22885 6607.99L22846.8 6616.96L22810.8 6623.53L22777.6 6627.65L22747.3 6629.26L22720.4 6628.35L22697.2 6624.93L22677.8 6619.03L22662.6 6610.72L22651.6 6600.09L22645.1 6587.26L22643 6572.36Z" fill="#18560E"/>
<path d="M22974.9 6379.08L23314 6308.21C23322.3 6306.47 23330.4 6303.43 23337.9 6299.17L23530.4 6189.81" stroke="#203420" stroke-opacity="0.58" stroke-width="3"/>
<path d="M25574.9 8285.39L25562.9 8245.12L25560 8198.84L25566.3 8147.7L25581.5 8092.95L25605.4 8035.93L25637.3 7978.07L25676.5 7920.77L25721.9 7865.45L25772.6 7813.47L25827.1 7766.12L25884.2 7724.55L25942.5 7689.8L26000.5 7662.71L26056.8 7643.96L26110.1 7634L26158.9 7633.09L26202.2 7641.24L26238.8 7658.25L26267.8 7683.7L26288.6 7716.98L26300.6 7757.25L26303.4 7803.53L26297.2 7854.67L26281.9 7909.43L26258 7966.44L26226.1 8024.31L26187 8081.61L26141.5 8136.92L26090.9 8188.9L26036.3 8236.25L25979.2 8277.82L25920.9 8312.57L25862.9 8339.66L25806.6 8358.41L25753.4 8368.37L25704.5 8369.29L25661.2 8361.14L25624.6 8344.12L25595.6 8318.67L25574.9 8285.39Z" fill="#18560E"/>
<path d="M25574.9 8285.39L25562.9 8245.12L25560 8198.84L25566.3 8147.7L25581.5 8092.95L25605.4 8035.93L25637.3 7978.07L25676.5 7920.77L25721.9 7865.45L25772.6 7813.47L25827.1 7766.12L25884.2 7724.55L25942.5 7689.8L26000.5 7662.71L26056.8 7643.96L26110.1 7634L26158.9 7633.09L26202.2 7641.24L26238.8 7658.25L26267.8 7683.7L26288.6 7716.98L26300.6 7757.25L26303.4 7803.53L26297.2 7854.67L26281.9 7909.43L26258 7966.44L26226.1 8024.31L26187 8081.61L26141.5 8136.92L26090.9 8188.9L26036.3 8236.25L25979.2 8277.82L25920.9 8312.57L25862.9 8339.66L25806.6 8358.41L25753.4 8368.37L25704.5 8369.29L25661.2 8361.14L25624.6 8344.12L25595.6 8318.67L25574.9 8285.39Z" stroke="black"/>
<path d="M26082.8 7799.41L26134.1 7805.76L26186.5 7819.4L26238.6 7839.99L26289.2 7867.03L26337.1 7899.86L26381 7937.67L26419.8 7979.51L26452.7 8024.37L26478.8 8071.15L26497.5 8118.68L26508.2 8165.79L26510.8 8211.34L26505.2 8254.19L26491.5 8293.29L26470 8327.67L26441.4 8356.5L26406.2 8379.07L26365.3 8394.8L26319.9 8403.33L26270.9 8404.43L26219.5 8398.09L26167.2 8384.45L26115 8363.85L26064.4 8336.81L26016.6 8303.98L25972.7 8266.18L25933.8 8224.33L25901 8179.47L25874.9 8132.7L25856.2 8085.17L25845.5 8038.05L25842.9 7992.51L25848.5 7949.66L25862.2 7910.56L25883.6 7876.17L25912.3 7847.34L25947.5 7824.78L25988.3 7809.04L26033.8 7800.52L26082.8 7799.41Z" fill="#18560E"/>
<path d="M26082.8 7799.41L26134.1 7805.76L26186.5 7819.4L26238.6 7839.99L26289.2 7867.03L26337.1 7899.86L26381 7937.67L26419.8 7979.51L26452.7 8024.37L26478.8 8071.15L26497.5 8118.68L26508.2 8165.79L26510.8 8211.34L26505.2 8254.19L26491.5 8293.29L26470 8327.67L26441.4 8356.5L26406.2 8379.07L26365.3 8394.8L26319.9 8403.33L26270.9 8404.43L26219.5 8398.09L26167.2 8384.45L26115 8363.85L26064.4 8336.81L26016.6 8303.98L25972.7 8266.18L25933.8 8224.33L25901 8179.47L25874.9 8132.7L25856.2 8085.17L25845.5 8038.05L25842.9 7992.51L25848.5 7949.66L25862.2 7910.56L25883.6 7876.17L25912.3 7847.34L25947.5 7824.78L25988.3 7809.04L26033.8 7800.52L26082.8 7799.41Z" stroke="black"/>
<path d="M26054.3 7681.49L26096.1 7660.97L26142.1 7650.13L26191.5 7649.26L26242.8 7658.36L26294.9 7677.21L26346.5 7705.36L26396.3 7742.1L26443.1 7786.53L26485.6 7837.56L26523 7893.93L26554.2 7954.25L26578.6 8017.04L26595.4 8080.75L26604.2 8143.81L26605 8204.68L26597.6 8261.84L26582.2 8313.9L26559.2 8359.57L26529.2 8397.73L26492.8 8427.43L26451.1 8447.95L26405 8458.79L26355.7 8459.66L26304.4 8450.56L26252.2 8431.71L26200.7 8403.56L26150.9 8366.82L26104.1 8322.39L26061.5 8271.37L26024.2 8215L25992.9 8154.67L25968.6 8091.88L25951.8 8028.17L25942.9 7965.11L25942.2 7904.24L25949.6 7847.08L25965 7795.02L25988 7749.35L26018 7711.19L26054.3 7681.49Z" fill="#18560E"/>
<path d="M26054.3 7681.49L26096.1 7660.97L26142.1 7650.13L26191.5 7649.26L26242.8 7658.36L26294.9 7677.21L26346.5 7705.36L26396.3 7742.1L26443.1 7786.53L26485.6 7837.56L26523 7893.93L26554.2 7954.25L26578.6 8017.04L26595.4 8080.75L26604.2 8143.81L26605 8204.68L26597.6 8261.84L26582.2 8313.9L26559.2 8359.57L26529.2 8397.73L26492.8 8427.43L26451.1 8447.95L26405 8458.79L26355.7 8459.66L26304.4 8450.56L26252.2 8431.71L26200.7 8403.56L26150.9 8366.82L26104.1 8322.39L26061.5 8271.37L26024.2 8215L25992.9 8154.67L25968.6 8091.88L25951.8 8028.17L25942.9 7965.11L25942.2 7904.24L25949.6 7847.08L25965 7795.02L25988 7749.35L26018 7711.19L26054.3 7681.49Z" stroke="black"/>
<path d="M25481.9 8291.38L25480.7 8267.48L25484.2 8242.25L25492.2 8215.96L25504.8 8188.9L25521.9 8161.36L25543.1 8133.65L25568.3 8106.08L25597.2 8078.93L25629.5 8052.52L25664.9 8027.12L25702.9 8003.03L25743.1 7980.49L25785.2 7959.77L25828.5 7941.08L25872.8 7924.63L25917.4 7910.61L25961.8 7899.16L26005.7 7890.4L26048.5 7884.45L26089.7 7881.36L26129 7881.16L26165.8 7883.86L26199.7 7889.42L26230.5 7897.8L26257.7 7908.89L26281 7922.57L26300.3 7938.7L26315.3 7957.09L26325.7 7977.55L26331.6 7999.85L26332.8 8023.75L26329.4 8048.98L26321.3 8075.27L26308.7 8102.33L26291.7 8129.87L26270.5 8157.58L26245.3 8185.16L26216.3 8212.3L26184 8238.71L26148.7 8264.11L26110.7 8288.2L26070.4 8310.74L26028.4 8331.46L25985 8350.15L25940.8 8366.6L25896.2 8380.62L25851.7 8392.08L25807.9 8400.83L25765.1 8406.78L25723.8 8409.88L25684.6 8410.07L25647.8 8407.37L25613.8 8401.81L25583.1 8393.43L25555.9 8382.34L25532.5 8368.66L25513.3 8352.54L25498.3 8334.14L25487.8 8313.68L25481.9 8291.38Z" fill="#18560E"/>
<path d="M25812.6 8095.89L26174.7 8081.41C26187.7 8080.89 26200.4 8077.23 26211.8 8070.73L26398.2 7964.84" stroke="#203420" stroke-opacity="0.58" stroke-width="3"/>
<path d="M23718.5 7712.31L23694.4 7677.39L23680.1 7628.4L23675.7 7566.57L23681.5 7493.4L23697.3 7410.71L23722.6 7320.52L23757 7225.06L23799.4 7126.68L23849 7027.81L23904.4 6930.87L23964.2 6838.25L24027.2 6752.23L24091.5 6674.94L24155.8 6608.27L24218.4 6553.87L24277.8 6513.08L24332.4 6486.9L24381 6475.97L24422.4 6480.56L24455.5 6500.57L24479.5 6535.49L24493.9 6584.48L24498.2 6646.31L24492.4 6719.48L24476.7 6802.18L24451.3 6892.36L24417 6987.82L24374.5 7086.2L24325 7185.08L24269.6 7282.02L24209.7 7374.64L24146.8 7460.65L24082.4 7537.94L24018.1 7604.61L23955.5 7659.01L23896.2 7699.8L23841.6 7725.99L23792.9 7736.92L23751.6 7732.32L23718.5 7712.31Z" fill="#18560E"/>
<path d="M23718.5 7712.31L23694.4 7677.39L23680.1 7628.4L23675.7 7566.57L23681.5 7493.4L23697.3 7410.71L23722.6 7320.52L23757 7225.06L23799.4 7126.68L23849 7027.81L23904.4 6930.87L23964.2 6838.25L24027.2 6752.23L24091.5 6674.94L24155.8 6608.27L24218.4 6553.87L24277.8 6513.08L24332.4 6486.9L24381 6475.97L24422.4 6480.56L24455.5 6500.57L24479.5 6535.49L24493.9 6584.48L24498.2 6646.31L24492.4 6719.48L24476.7 6802.18L24451.3 6892.36L24417 6987.82L24374.5 7086.2L24325 7185.08L24269.6 7282.02L24209.7 7374.64L24146.8 7460.65L24082.4 7537.94L24018.1 7604.61L23955.5 7659.01L23896.2 7699.8L23841.6 7725.99L23792.9 7736.92L23751.6 7732.32L23718.5 7712.31Z" stroke="black"/>
<path d="M24223.9 6759.57L24288 6724.82L24355 6697.31L24423.4 6677.71L24491.4 6666.5L24557.4 6663.96L24619.8 6670.16L24677 6684.93L24727.6 6707.92L24770.4 6738.56L24804.2 6776.1L24828.4 6819.6L24842.2 6868.01L24845.4 6920.12L24837.9 6974.66L24819.8 7030.28L24791.6 7085.61L24753.9 7139.3L24707.8 7190L24654.4 7236.49L24594.9 7277.62L24530.9 7312.36L24463.8 7339.87L24395.5 7359.47L24327.4 7370.68L24261.4 7373.22L24199 7367.02L24141.8 7352.25L24091.2 7329.26L24048.5 7298.62L24014.6 7261.08L23990.4 7217.58L23976.6 7169.17L23973.4 7117.06L23981 7062.52L23999.1 7006.9L24027.3 6951.57L24064.9 6897.89L24111 6847.18L24164.4 6800.69L24223.9 6759.57Z" fill="#18560E"/>
<path d="M24223.9 6759.57L24288 6724.82L24355 6697.31L24423.4 6677.71L24491.4 6666.5L24557.4 6663.96L24619.8 6670.16L24677 6684.93L24727.6 6707.92L24770.4 6738.56L24804.2 6776.1L24828.4 6819.6L24842.2 6868.01L24845.4 6920.12L24837.9 6974.66L24819.8 7030.28L24791.6 7085.61L24753.9 7139.3L24707.8 7190L24654.4 7236.49L24594.9 7277.62L24530.9 7312.36L24463.8 7339.87L24395.5 7359.47L24327.4 7370.68L24261.4 7373.22L24199 7367.02L24141.8 7352.25L24091.2 7329.26L24048.5 7298.62L24014.6 7261.08L23990.4 7217.58L23976.6 7169.17L23973.4 7117.06L23981 7062.52L23999.1 7006.9L24027.3 6951.57L24064.9 6897.89L24111 6847.18L24164.4 6800.69L24223.9 6759.57Z" stroke="black"/>
<path d="M24161.6 6651.95L24207.6 6595.21L24261.3 6545.67L24321.2 6504.53L24385.9 6472.81L24453.9 6451.3L24523.4 6440.52L24592.7 6440.73L24660.1 6451.94L24724 6473.87L24782.7 6505.97L24834.9 6547.46L24879.3 6597.31L24914.7 6654.3L24940.3 6717.03L24955.5 6783.94L24959.8 6853.4L24953.3 6923.68L24935.9 6993.07L24908.3 7059.85L24870.9 7122.38L24824.9 7179.11L24771.2 7228.66L24711.3 7269.8L24646.6 7301.51L24578.6 7323.03L24509.1 7333.81L24439.8 7333.59L24372.4 7322.38L24308.5 7300.45L24249.8 7268.35L24197.6 7226.86L24153.2 7177.01L24117.8 7120.02L24092.2 7057.3L24077 6990.38L24072.7 6920.93L24079.2 6850.64L24096.6 6781.25L24124.2 6714.47L24161.6 6651.95Z" fill="#18560E"/>
<path d="M24161.6 6651.95L24207.6 6595.21L24261.3 6545.67L24321.2 6504.53L24385.9 6472.81L24453.9 6451.3L24523.4 6440.52L24592.7 6440.73L24660.1 6451.94L24724 6473.87L24782.7 6505.97L24834.9 6547.46L24879.3 6597.31L24914.7 6654.3L24940.3 6717.03L24955.5 6783.94L24959.8 6853.4L24953.3 6923.68L24935.9 6993.07L24908.3 7059.85L24870.9 7122.38L24824.9 7179.11L24771.2 7228.66L24711.3 7269.8L24646.6 7301.51L24578.6 7323.03L24509.1 7333.81L24439.8 7333.59L24372.4 7322.38L24308.5 7300.45L24249.8 7268.35L24197.6 7226.86L24153.2 7177.01L24117.8 7120.02L24092.2 7057.3L24077 6990.38L24072.7 6920.93L24079.2 6850.64L24096.6 6781.25L24124.2 6714.47L24161.6 6651.95Z" stroke="black"/>
<path d="M23606.6 7794.61L23599.5 7769.1L23597.8 7738.31L23601.5 7702.57L23610.5 7662.28L23624.8 7617.88L23644.2 7569.85L23668.5 7518.72L23697.4 7465.06L23730.6 7409.44L23767.7 7352.48L23808.4 7294.8L23852.2 7237.04L23898.6 7179.83L23947.1 7123.78L23997.2 7069.53L24048.2 7017.66L24099.8 6968.74L24151.2 6923.3L24202 6881.85L24251.5 6844.84L24299.3 6812.67L24344.8 6785.7L24387.5 6764.22L24427 6748.47L24462.8 6738.62L24494.4 6734.78L24521.7 6736.98L24544.2 6745.21L24561.8 6759.38L24574.2 6779.33L24581.3 6804.84L24583 6835.63L24579.3 6871.37L24570.3 6911.66L24556 6956.06L24536.6 7004.09L24512.3 7055.21L24483.4 7108.88L24450.2 7164.5L24413.1 7221.45L24372.4 7279.13L24328.6 7336.89L24282.2 7394.11L24233.7 7450.15L24183.7 7504.41L24132.6 7556.28L24081 7605.2L24029.6 7650.63L23978.8 7692.08L23929.3 7729.09L23881.5 7761.26L23836 7788.23L23793.3 7809.71L23753.8 7825.46L23718.1 7835.31L23686.4 7839.16L23659.1 7836.95L23636.6 7828.72L23619 7814.55L23606.6 7794.61Z" fill="#18560E"/>
<path d="M23963.9 7308.49L24415.4 6988.1C24422.3 6983.17 24428.5 6977.17 24433.6 6970.31L24647.2 6686.25" stroke="#203420" stroke-opacity="0.58" stroke-width="3"/>
<path d="M24486 7735.44L24513.7 7720.4L24548.4 7715.08L24589.1 7719.63L24635 7733.93L24684.7 7757.63L24737.3 7790.14L24791.2 7830.66L24845.2 7878.2L24898.1 7931.58L24948.4 7989.5L24994.9 8050.51L25036.5 8113.13L25072.2 8175.81L25101.1 8237.01L25122.5 8295.22L25135.8 8349L25140.7 8397.04L25137.1 8438.14L25125.1 8471.3L25105 8495.7L25077.3 8510.75L25042.6 8516.06L25001.9 8511.51L24956.1 8497.21L24906.3 8473.52L24853.8 8441.01L24799.8 8400.48L24745.8 8352.94L24692.9 8299.56L24642.6 8241.65L24596.1 8180.63L24554.5 8118.01L24518.8 8055.33L24489.9 7994.13L24468.5 7935.93L24455.2 7882.14L24450.3 7834.11L24453.9 7793L24465.9 7759.84L24486 7735.44Z" fill="#18560E"/>
<path d="M24486 7735.44L24513.7 7720.4L24548.4 7715.08L24589.1 7719.63L24635 7733.93L24684.7 7757.63L24737.3 7790.14L24791.2 7830.66L24845.2 7878.2L24898.1 7931.58L24948.4 7989.5L24994.9 8050.51L25036.5 8113.13L25072.2 8175.81L25101.1 8237.01L25122.5 8295.22L25135.8 8349L25140.7 8397.04L25137.1 8438.14L25125.1 8471.3L25105 8495.7L25077.3 8510.75L25042.6 8516.06L25001.9 8511.51L24956.1 8497.21L24906.3 8473.52L24853.8 8441.01L24799.8 8400.48L24745.8 8352.94L24692.9 8299.56L24642.6 8241.65L24596.1 8180.63L24554.5 8118.01L24518.8 8055.33L24489.9 7994.13L24468.5 7935.93L24455.2 7882.14L24450.3 7834.11L24453.9 7793L24465.9 7759.84L24486 7735.44Z" stroke="black"/>
<path d="M24988.9 8272.78L24997.3 8329.61L25000.3 8387.93L24998 8446.31L24990.4 8503.31L24977.6 8557.53L24960 8607.63L24938 8652.38L24912.2 8690.67L24883.1 8721.56L24851.5 8744.3L24818.3 8758.32L24784.1 8763.28L24749.9 8759.06L24716.4 8745.75L24684.6 8723.69L24655.1 8693.42L24628.8 8655.69L24606.2 8611.42L24587.9 8561.7L24574.4 8507.77L24566.1 8450.94L24563 8392.61L24565.3 8334.23L24572.9 8277.23L24585.7 8223.02L24603.3 8172.92L24625.3 8128.17L24651.2 8089.88L24680.2 8058.98L24711.8 8036.24L24745 8022.22L24779.2 8017.27L24813.5 8021.49L24846.9 8034.8L24878.8 8056.86L24908.2 8087.13L24934.6 8124.86L24957.1 8169.13L24975.4 8218.85L24988.9 8272.78Z" fill="#18560E"/>
<path d="M24988.9 8272.78L24997.3 8329.61L25000.3 8387.93L24998 8446.31L24990.4 8503.31L24977.6 8557.53L24960 8607.63L24938 8652.38L24912.2 8690.67L24883.1 8721.56L24851.5 8744.3L24818.3 8758.32L24784.1 8763.28L24749.9 8759.06L24716.4 8745.75L24684.6 8723.69L24655.1 8693.42L24628.8 8655.69L24606.2 8611.42L24587.9 8561.7L24574.4 8507.77L24566.1 8450.94L24563 8392.61L24565.3 8334.23L24572.9 8277.23L24585.7 8223.02L24603.3 8172.92L24625.3 8128.17L24651.2 8089.88L24680.2 8058.98L24711.8 8036.24L24745 8022.22L24779.2 8017.27L24813.5 8021.49L24846.9 8034.8L24878.8 8056.86L24908.2 8087.13L24934.6 8124.86L24957.1 8169.13L24975.4 8218.85L24988.9 8272.78Z" stroke="black"/>
<path d="M25071.7 8235.97L25098.2 8280.99L25118.4 8331.28L25131.8 8385.59L25138.1 8442.58L25137.1 8500.86L25128.9 8558.98L25113.6 8615.52L25091.7 8669.09L25063.6 8718.36L25030.1 8762.13L24992 8799.31L24950.2 8828.99L24905.8 8850.43L24859.9 8863.12L24813.5 8866.74L24767.8 8861.19L24724 8846.62L24683.2 8823.38L24646.2 8792.06L24614.1 8753.4L24587.6 8708.38L24567.5 8658.1L24554.1 8603.79L24547.8 8546.8L24548.8 8488.52L24557 8430.39L24572.3 8373.85L24594.2 8320.29L24622.3 8271.01L24655.8 8227.25L24693.9 8190.07L24735.6 8160.39L24780 8138.94L24826 8126.26L24872.4 8122.64L24918 8128.19L24961.8 8142.76L25002.7 8165.99L25039.7 8197.32L25071.7 8235.97Z" fill="#18560E"/>
<path d="M25071.7 8235.97L25098.2 8280.99L25118.4 8331.28L25131.8 8385.59L25138.1 8442.58L25137.1 8500.86L25128.9 8558.98L25113.6 8615.52L25091.7 8669.09L25063.6 8718.36L25030.1 8762.13L24992 8799.31L24950.2 8828.99L24905.8 8850.43L24859.9 8863.12L24813.5 8866.74L24767.8 8861.19L24724 8846.62L24683.2 8823.38L24646.2 8792.06L24614.1 8753.4L24587.6 8708.38L24567.5 8658.1L24554.1 8603.79L24547.8 8546.8L24548.8 8488.52L24557 8430.39L24572.3 8373.85L24594.2 8320.29L24622.3 8271.01L24655.8 8227.25L24693.9 8190.07L24735.6 8160.39L24780 8138.94L24826 8126.26L24872.4 8122.64L24918 8128.19L24961.8 8142.76L25002.7 8165.99L25039.7 8197.32L25071.7 8235.97Z" stroke="black"/>
<path d="M24457.4 7633.35L24475.4 7630.9L24495.6 7633.53L24517.8 7641.21L24541.8 7653.86L24567.2 7671.34L24593.9 7693.46L24621.5 7719.98L24649.7 7750.6L24678.3 7784.99L24706.8 7822.78L24735.1 7863.55L24762.7 7906.84L24789.4 7952.2L24814.9 7999.12L24838.9 8047.09L24861.1 8095.58L24881.3 8144.06L24899.4 8191.99L24914.9 8238.87L24928 8284.16L24938.2 8327.38L24945.7 8368.05L24950.2 8405.72L24951.7 8439.99L24950.2 8470.48L24945.8 8496.85L24938.4 8518.81L24928.2 8536.12L24915.2 8548.6L24899.7 8556.11L24881.7 8558.56L24861.5 8555.94L24839.3 8548.25L24815.4 8535.6L24789.9 8518.12L24763.2 8496L24735.6 8469.48L24707.4 8438.86L24678.8 8404.47L24650.3 8366.68L24622.1 8325.92L24594.4 8282.62L24567.7 8237.26L24542.2 8190.34L24518.3 8142.37L24496 8093.89L24475.8 8045.41L24457.8 7997.47L24442.2 7950.59L24429.2 7905.3L24418.9 7862.08L24411.5 7821.41L24407 7783.74L24405.4 7749.47L24406.9 7718.99L24411.4 7692.62L24418.7 7670.65L24428.9 7653.34L24441.9 7640.86L24457.4 7633.35Z" fill="#18560E"/>
<path d="M24631.7 7858.69L24737.9 8263.75C24740.5 8273.6 24744.5 8282.76 24749.7 8290.84L24883 8497.89" stroke="#203420" stroke-opacity="0.58" stroke-width="3"/>
<ellipse cx="254.332" cy="239.855" rx="254.332" ry="239.855" transform="matrix(0.287945 0.788041 0.719193 -0.432069 5514.52 6486.71)" fill="#FFEB36"/>
<ellipse cx="254.332" cy="239.855" rx="254.332" ry="239.855" transform="matrix(0.287945 0.788041 0.719193 -0.432069 5321.19 6993.93)" fill="#FFEB36"/>
<path d="M5395.4 6851.58C5471.61 6805.79 5507.17 6696.89 5474.81 6608.33C5442.45 6519.78 5354.44 6485.11 5278.22 6530.9C5202.01 6576.69 5166.45 6685.6 5198.81 6774.15C5231.16 6862.7 5319.18 6897.37 5395.4 6851.58Z" fill="#FFEB36"/>
<ellipse cx="330.632" cy="311.812" rx="330.632" ry="311.812" transform="matrix(0.287945 0.788041 0.719193 -0.432069 5744.63 6886.19)" fill="#FFEB36"/>
<ellipse cx="232.251" cy="263.124" rx="232.251" ry="263.124" transform="matrix(0.695158 0.469763 0.322603 -0.774499 9398.18 6726.57)" fill="#FFEB36"/>
<path d="M9490.06 7102.04C9527.57 7012 9500.14 6899.93 9428.81 6851.72C9357.48 6803.52 9269.25 6837.43 9231.74 6927.47C9194.24 7017.51 9221.66 7129.58 9292.99 7177.79C9364.33 7225.99 9452.56 7192.08 9490.06 7102.04Z" fill="#FFEB36"/>
<ellipse cx="301.927" cy="342.061" rx="301.927" ry="342.061" transform="matrix(0.695158 0.469763 0.322603 -0.774499 9787.33 6885.08)" fill="#FFEB36"/>
<ellipse cx="253.413" cy="236.557" rx="253.413" ry="236.557" transform="matrix(0.312273 -0.778722 -0.765416 -0.343599 8111.78 6693.18)" fill="#FFEB36"/>
<ellipse cx="253.413" cy="236.557" rx="253.413" ry="236.557" transform="matrix(0.312273 -0.778722 -0.765416 -0.343599 8564.31 6523.75)" fill="#FFEB36"/>
<path d="M8424.02 6553.91C8344.02 6518 8250.82 6559.57 8215.86 6646.76C8180.9 6733.95 8217.4 6833.74 8297.4 6869.65C8377.4 6905.57 8470.6 6864 8505.56 6776.81C8540.53 6689.62 8504.02 6589.82 8424.02 6553.91Z" fill="#FFEB36"/>
<ellipse cx="222.327" cy="269.785" rx="222.327" ry="269.785" transform="matrix(-0.838573 0.0267758 0.0708506 0.836004 10800.7 5653.64)" fill="#FFEB36"/>
<path d="M10886.7 5786.58C10895.2 5886.23 10968.8 5964.88 11051.2 5962.25C11133.6 5959.62 11193.5 5876.71 11185 5777.06C11176.6 5677.41 11103 5598.75 11020.6 5601.39C10938.2 5604.02 10878.3 5686.93 10886.7 5786.58Z" fill="#FFEB36"/>
</g>
<defs>
<filter id="filter0_d_2_3" x="5723.75" y="5198.65" width="6868.43" height="2620.45" filterUnits="userSpaceOnUse" color-interpolation-filters="sRGB">
<feFlood flood-opacity="0" result="BackgroundImageFix"/>
<feColorMatrix in="SourceAlpha" type="matrix" values="0 0 0 0 0 0 0 0 0 0 0 0 0 0 0 0 0 0 127 0" result="hardAlpha"/>
<feOffset dy="4"/>
<feGaussianBlur stdDeviation="2"/>
<feComposite in2="hardAlpha" operator="out"/>
<feColorMatrix type="matrix" values="0 0 0 0 0 0 0 0 0 0 0 0 0 0 0 0 0 0 0.25 0"/>
<feBlend mode="normal" in2="BackgroundImageFix" result="effect1_dropShadow_2_3"/>
<feBlend mode="normal" in="SourceGraphic" in2="effect1_dropShadow_2_3" result="shape"/>
</filter>
<filter id="filter1_d_2_3" x="15823.2" y="4343.74" width="15597.3" height="1385.04" filterUnits="userSpaceOnUse" color-interpolation-filters="sRGB">
<feFlood flood-opacity="0" result="BackgroundImageFix"/>
<feColorMatrix in="SourceAlpha" type="matrix" values="0 0 0 0 0 0 0 0 0 0 0 0 0 0 0 0 0 0 127 0" result="hardAlpha"/>
<feOffset dy="4"/>
<feGaussianBlur stdDeviation="2"/>
<feComposite in2="hardAlpha" operator="out"/>
<feColorMatrix type="matrix" values="0 0 0 0 0 0 0 0 0 0 0 0 0 0 0 0 0 0 0.25 0"/>
<feBlend mode="normal" in2="BackgroundImageFix" result="effect1_dropShadow_2_3"/>
<feBlend mode="normal" in="SourceGraphic" in2="effect1_dropShadow_2_3" result="shape"/>
</filter>
<filter id="filter2_d_2_3" x="19672.4" y="5273.79" width="7157.37" height="3669.39" filterUnits="userSpaceOnUse" color-interpolation-filters="sRGB">
<feFlood flood-opacity="0" result="BackgroundImageFix"/>
<feColorMatrix in="SourceAlpha" type="matrix" values="0 0 0 0 0 0 0 0 0 0 0 0 0 0 0 0 0 0 127 0" result="hardAlpha"/>
<feOffset dy="4"/>
<feGaussianBlur stdDeviation="2"/>
<feComposite in2="hardAlpha" operator="out"/>
<feColorMatrix type="matrix" values="0 0 0 0 0 0 0 0 0 0 0 0 0 0 0 0 0 0 0.25 0"/>
<feBlend mode="normal" in2="BackgroundImageFix" result="effect1_dropShadow_2_3"/>
<feBlend mode="normal" in="SourceGraphic" in2="effect1_dropShadow_2_3" result="shape"/>
</filter>
<clipPath id="clip0_2_3">
<rect width="39056" height="11352" fill="white" transform="scale(0.839)"/>
</clipPath>
</defs>
</svg>
